<svg xmlns="http://www.w3.org/2000/svg" version="1.1" xmlns:xlink="http://www.w3.org/1999/xlink" xmlns:svgjs="http://svgjs.dev/svgjs" viewBox="0 0 13.874164163234656 5.760992252507552"><g transform="matrix(0.7788013295300242,0,0,0.7788013295300242,5.353278064800396,2.1147835265681656)"><g transform="matrix(1,0,0,1,0,0)" clip-path="url(#SvgjsClipPath141718)"><g clip-path="url(#SvgjsClipPath1417164f782bfd-07cf-4028-ba97-6ed8eb4caafd)"><path d=" M -2.6383049937963072 -0.33764650515817385 L -2.2023161376427325 -0.7736353613117493 C -2.1199245427790645 -0.856026956175417 -2.094177169384168 -0.9744648737919395 -2.123357525898384 -1.079170858931184 L -2.0358164563557373 -0.991629789388537 C -1.9293939796568331 -0.8852073126896327 -1.9036466062619368 -0.6860942917691022 -2.0083525914011813 -0.5813883066298577 L -2.4443414475547565 -0.14539945047628244 C -2.5267330424184244 -0.0630078556126148 -2.5524804158133207 0.055430062003907654 -2.5233000592991046 0.1601360471431521 L -2.638304993796308 0.04513111264594927 C -2.744727470495212 -0.05957487249329518 -2.744727470495212 -0.23122402845926981 -2.6383049937963072 -0.33764650515817385 Z" fill="#bd1622" transform="matrix(1,0,0,1,0,0)" fill-rule="nonzero"></path></g><g clip-path="url(#SvgjsClipPath1417164f782bfd-07cf-4028-ba97-6ed8eb4caafd)"><path d=" M -2.4615063631513534 0.2150637770522641 L -2.040965931034716 -0.20547665506437351 C -1.958574336171048 -0.2878682499280414 -1.932826962776152 -0.40630616754456383 -1.9620073192903678 -0.5110121526838082 L -1.8744662497477211 -0.4234710831411612 C -1.768043773048817 -0.31704860644225685 -1.7422963996539207 -0.11793558552172634 -1.8470023847931651 -0.01322960038248211 L -2.2675428169098026 0.4073108317341554 C -2.3499344117734706 0.4897024265978229 -2.375681785168367 0.6081403442143458 -2.3465014286541512 0.71284632935359 L -2.461506363151354 0.5978413948563872 C -2.5679288398502575 0.49313540971714254 -2.5679288398502575 0.32148625375116824 -2.4615063631513534 0.2150637770522641 Z" fill="#e20613" transform="matrix(1,0,0,1,0,0)" fill-rule="nonzero"></path></g><g clip-path="url(#SvgjsClipPath1417164f782bfd-07cf-4028-ba97-6ed8eb4caafd)"><path d=" M -2.6383049937963072 1.9950655244194198 L -2.2023161376427325 1.5590766682658446 C -2.1199245427790645 1.4766850734021761 -2.094177169384168 1.3582471557856546 -2.123357525898384 1.2535411706464097 L -2.0358164563557373 1.3410822401890563 C -1.9293939796568331 1.4475047168879605 -1.9036466062619368 1.6466177378084912 -2.0083525914011813 1.751323722947736 L -2.4443414475547565 2.1873125791013113 C -2.5267330424184244 2.2697041739649793 -2.5524804158133207 2.3881420915815013 -2.5233000592991046 2.4928480767207457 L -2.638304993796308 2.377843142223543 C -2.744727470495212 2.2714206655246385 -2.744727470495212 2.0997715095586647 -2.6383049937963072 1.9950655244194198 Z" fill="#00a099" transform="matrix(1,0,0,1,0,0)" fill-rule="nonzero"></path></g><g clip-path="url(#SvgjsClipPath1417164f782bfd-07cf-4028-ba97-6ed8eb4caafd)"><path d=" M -2.4615063631513534 2.547775806629858 L -2.040965931034716 2.12723537451322 C -1.958574336171048 2.044843779649552 -1.932826962776152 1.9264058620330302 -1.9620073192903678 1.8216998768937849 L -1.8744662497477211 1.909240946436432 C -1.768043773048817 2.015663423135336 -1.7422963996539207 2.2147764440558673 -1.8470023847931651 2.3194824291951117 L -2.2675428169098026 2.7400228613117488 C -2.3499344117734706 2.822414456175417 -2.375681785168367 2.9408523737919388 -2.3465014286541512 3.0455583589311837 L -2.461506363151354 2.9305534244339815 C -2.5679288398502575 2.8258474392947366 -2.5679288398502575 2.654198283328762 -2.4615063631513534 2.547775806629858 Z" fill="#007d73" transform="matrix(1,0,0,1,0,0)" fill-rule="nonzero"></path></g><g clip-path="url(#SvgjsClipPath1417164f782bfd-07cf-4028-ba97-6ed8eb4caafd)"><path d=" M -1.2994415772617058 -0.01322960038248211 L -0.7038190060597742 0.14640411466587433 C -0.5905305631222313 0.1773009627397495 -0.4755256286250278 0.1395381484272351 -0.3999999999999999 0.06057953668288696 L -0.43261333963353543 0.1807339458590691 C -0.47209264550570973 0.32491923687048785 -0.6300098689944056 0.44850662916598916 -0.7741951600058248 0.40902732329381486 L -1.3698177312077555 0.24939360824545886 C -1.4831061741452989 0.2184967601715837 -1.598111108642502 0.2562595744840981 -1.6736367372675303 0.335218186228446 L -1.6324409398356967 0.1790174542994094 C -1.5929616339635229 0.033115671728331186 -1.4453433598327843 -0.052708906254656185 -1.2994415772617058 -0.01322960038248211 Z" fill="#f29100" transform="matrix(1,0,0,1,0,0)" fill-rule="nonzero"></path></g><g clip-path="url(#SvgjsClipPath1417164f782bfd-07cf-4028-ba97-6ed8eb4caafd)"><path d=" M -1.6908016528641276 0.4158932895324541 L -1.1157769803781132 0.570377529901831 C -1.0024885374405703 0.6012743779757066 -0.8874836029433673 0.563511563663192 -0.8119579743183385 0.48455295191884407 L -0.8445713139518736 0.6047073610950262 C -0.8840506198240483 0.748892652106445 -1.0419678433127446 0.8724800444019465 -1.1861531343241634 0.8330007385297722 L -1.7611778068101778 0.6785164981603953 C -1.8744662497477211 0.6476196500865199 -1.9894711842449238 0.6853824643990343 -2.064996812869953 0.7643410761433822 L -2.023801015438119 0.6081403442143458 C -1.9843217095659442 0.4622385616432674 -1.8349869438755464 0.37641398366028 -1.6908016528641276 0.4158932895324541 Z" fill="#f8b133" transform="matrix(1,0,0,1,0,0)" fill-rule="nonzero"></path></g><g clip-path="url(#SvgjsClipPath1417164f782bfd-07cf-4028-ba97-6ed8eb4caafd)"><path d=" M -3.3197521429812262 1.152268168626485 L -2.7241295717792946 1.3119018836748415 C -2.6108411288417512 1.3427987317487173 -2.495836194344548 1.3050359174362027 -2.42031056571952 1.2260773056918541 L -2.4529239053530545 1.3462317148680363 C -2.492403211225229 1.490417005879455 -2.6503204347139255 1.6140043981749566 -2.794505725725344 1.5745250923027827 L -3.3901282969272755 1.4148913772544263 C -3.503416739864819 1.3839945291805504 -3.6184216743620214 1.421757343493065 -3.69394730298705 1.5007159552374136 L -3.6527515055552167 1.3445152233083766 C -3.613272199683043 1.1986134407372977 -3.463937433992645 1.1127888627543103 -3.3197521429812262 1.152268168626485 Z" fill="#009ee2" transform="matrix(1,0,0,1,0,0)" fill-rule="nonzero"></path></g><g clip-path="url(#SvgjsClipPath1417164f782bfd-07cf-4028-ba97-6ed8eb4caafd)"><path d=" M -3.711112218583648 1.581391058541421 L -3.1360875460976336 1.7358752989107984 C -3.0227991031600903 1.7667721469846742 -2.907794168662887 1.7290093326721592 -2.8322685400378584 1.650050720927811 L -2.864881879671394 1.7702051301039932 C -2.904361185543568 1.9143904211154124 -3.0622784090322646 2.0379778134109134 -3.2064637000436833 1.9984985075387396 L -3.7814883725296977 1.8440142671693622 C -3.894776815467241 1.8131174190954873 -4.009781749964444 1.8508802334080015 -4.085307378589473 1.9298388451523496 L -4.0441115811576385 1.7736381132233134 C -4.004632275285465 1.6294528222118938 -3.855297509595067 1.5419117526692472 -3.711112218583648 1.581391058541421 Z" fill="#1d70b7" transform="matrix(1,0,0,1,0,0)" fill-rule="nonzero"></path></g><g clip-path="url(#SvgjsClipPath1417164f782bfd-07cf-4028-ba97-6ed8eb4caafd)"><path d=" M -0.9012155354206453 1.3050359174362027 L -0.7415818203722888 1.900658488638134 C -0.7106849722984134 2.0139469315756773 -0.6214274111961067 2.0946220348796856 -0.5167214260568618 2.120369408274582 L -0.6368758352330439 2.1529827479081165 C -0.7810611262444631 2.192462053780291 -0.9664422146877154 2.115219933595603 -1.0059215205598897 1.9710346425841836 L -1.1655552356082457 1.3754120713822524 C -1.196452083682122 1.262123628444709 -1.2857096447844283 1.1814485251407008 -1.3904156299236727 1.155701151745805 L -1.2342148979946357 1.114505354313971 C -1.0883131154235577 1.0750260484417966 -0.9389783497331599 1.160850626424784 -0.9012155354206453 1.3050359174362027 Z" fill="#39a935" transform="matrix(1,0,0,1,0,0)" fill-rule="nonzero"></path></g><g clip-path="url(#SvgjsClipPath1417164f782bfd-07cf-4028-ba97-6ed8eb4caafd)"><path d=" M -1.4676577501083612 1.1814485251407003 L -1.3131735097389843 1.7564731976267147 C -1.2822766616651085 1.869761640564258 -1.1930191005628017 1.9504367438682664 -1.0883131154235577 1.9761841172631627 L -1.2084675245997398 2.008797456896698 C -1.3526528156111581 2.0482767627688725 -1.5380339040544104 1.9710346425841836 -1.5775132099265852 1.8268493515727653 L -1.731997450295962 1.2518246790867504 C -1.7628942983698375 1.1385362361492075 -1.8521518594721442 1.0578611328451992 -1.9568578446113887 1.032113759450303 L -1.8006571126823516 0.9909179620184689 C -1.6547553301112736 0.9497221645866349 -1.5071370559805355 1.0355467425696219 -1.4676577501083612 1.1814485251407003 Z" fill="#95c023" transform="matrix(1,0,0,1,0,0)" fill-rule="nonzero"></path></g><g clip-path="url(#SvgjsClipPath1417164f782bfd-07cf-4028-ba97-6ed8eb4caafd)"><path d=" M -2.9198096095805055 0.13953814842723533 L -2.760175894532149 0.7351607196291667 C -2.7292790464582737 0.8484491625667099 -2.640021485355967 0.9291242658707177 -2.535315500216723 0.954871639265614 L -2.655469909392905 0.9874849788991495 C -2.799655200404324 1.0269642847713238 -2.985036288847576 0.9497221645866354 -3.02451559471975 0.8055368735752164 L -3.1841493097681064 0.209914302373285 C -3.2150461578419818 0.09662585943574187 -3.3043037189442885 0.0159507561317338 -3.409009704083533 -0.009796617263162277 L -3.2528089721544964 -0.05099241469499627 C -3.1086236811430776 -0.09218821212683026 -2.95928891545268 -0.006363634143843111 -2.9198096095805055 0.13953814842723533 Z" fill="#81358a" transform="matrix(1,0,0,1,0,0)" fill-rule="nonzero"></path></g><g clip-path="url(#SvgjsClipPath1417164f782bfd-07cf-4028-ba97-6ed8eb4caafd)"><path d=" M -3.487968315827881 0.014234264572073885 L -3.3334840754585042 0.5892589370580883 C -3.302587227384629 0.7025473799956314 -3.213329666282322 0.7832224832996395 -3.1086236811430776 0.8089698566945358 L -3.2287780903192598 0.8415831963280709 C -3.3729633813306785 0.881062502200245 -3.558344469773931 0.8038203820155565 -3.597823775646105 0.659635091004138 L -3.752308016015482 0.08461041851812356 C -3.7832048640893574 -0.02867802441941958 -3.872462425191664 -0.10935312772342765 -3.9771684103309086 -0.13510050111832395 L -3.8209676784018716 -0.17629629855015772 C -3.6750658958307936 -0.215775604422332 -3.5274476217000554 -0.12995102643934464 -3.487968315827881 0.014234264572073885 Z" fill="#61246d" transform="matrix(1,0,0,1,0,0)" fill-rule="nonzero"></path></g></g><g><path d=" M 0.063 0.7829999999999997 Q 0.07200000000000001 0.7889999999999997 0.12 0.8084999999999998 Q 0.168 0.8279999999999997 0.2325 0.8279999999999997 Q 0.279 0.8279999999999997 0.3075 0.8122499999999997 Q 0.336 0.7964999999999998 0.35025 0.7634999999999997 Q 0.3645 0.7304999999999997 0.36975 0.6772499999999997 Q 0.375 0.6239999999999997 0.375 0.5474999999999998 L 0.375 0.005999999999999783 L 0.6675 0.005999999999999783 L 0.6675 0.5474999999999998 Q 0.6675 0.6689999999999997 0.65325 0.7679999999999998 Q 0.639 0.8669999999999998 0.5955 0.9389999999999997 Q 0.552 1.0109999999999997 0.465 1.0492499999999998 Q 0.378 1.0874999999999997 0.2325 1.0874999999999997 Q 0.1635 1.0874999999999997 0.1065 1.0709999999999997 Q 0.0495 1.0544999999999998 0.0015 1.0214999999999996 L 0.063 0.7829999999999997 M 1.322978759765625 1.0799999999999996 Q 1.201478759765625 1.0799999999999996 1.102478759765625 1.0342499999999997 Q 1.003478759765625 0.9884999999999997 0.9322287597656249 0.9112499999999997 Q 0.860978759765625 0.8339999999999997 0.822728759765625 0.7372499999999997 Q 0.784478759765625 0.6404999999999997 0.784478759765625 0.5369999999999997 Q 0.784478759765625 0.43049999999999977 0.824978759765625 0.3344999999999997 Q 0.8654787597656249 0.2384999999999997 0.9382287597656249 0.16274999999999973 Q 1.010978759765625 0.08699999999999974 1.110728759765625 0.04349999999999965 Q 1.210478759765625 -2.220446049250313e-16 1.3289787597656249 -2.220446049250313e-16 Q 1.450478759765625 -2.220446049250313e-16 1.549478759765625 0.045749999999999735 Q 1.648478759765625 0.09149999999999969 1.718978759765625 0.16949999999999976 Q 1.789478759765625 0.24749999999999972 1.8277287597656249 0.3442499999999997 Q 1.865978759765625 0.4409999999999997 1.865978759765625 0.5429999999999997 Q 1.865978759765625 0.6479999999999997 1.826228759765625 0.7439999999999998 Q 1.7864787597656249 0.8399999999999997 1.713728759765625 0.9157499999999997 Q 1.6409787597656251 0.9914999999999997 1.541978759765625 1.0357499999999997 Q 1.442978759765625 1.0799999999999996 1.322978759765625 1.0799999999999996 M 1.081478759765625 0.5399999999999997 Q 1.081478759765625 0.5939999999999996 1.096478759765625 0.6442499999999998 Q 1.111478759765625 0.6944999999999997 1.1414787597656249 0.7342499999999997 Q 1.1714787597656249 0.7739999999999998 1.217228759765625 0.7972499999999998 Q 1.262978759765625 0.8204999999999998 1.325978759765625 0.8204999999999998 Q 1.388978759765625 0.8204999999999998 1.435478759765625 0.7964999999999998 Q 1.4819787597656249 0.7724999999999997 1.511228759765625 0.7312499999999997 Q 1.5404787597656249 0.6899999999999997 1.554728759765625 0.6397499999999997 Q 1.568978759765625 0.5894999999999997 1.568978759765625 0.5369999999999997 Q 1.568978759765625 0.48299999999999976 1.553978759765625 0.43349999999999966 Q 1.5389787597656248 0.3839999999999997 1.508978759765625 0.3442499999999997 Q 1.478978759765625 0.30449999999999966 1.432478759765625 0.2819999999999997 Q 1.385978759765625 0.25949999999999973 1.3244787597656251 0.25949999999999973 Q 1.261478759765625 0.25949999999999973 1.215728759765625 0.28349999999999975 Q 1.169978759765625 0.30749999999999966 1.139978759765625 0.3472499999999997 Q 1.109978759765625 0.3869999999999997 1.095728759765625 0.4372499999999997 Q 1.081478759765625 0.4874999999999997 1.081478759765625 0.5399999999999997 M 2.287500732421875 0.5474999999999998 L 2.287500732421875 1.0709999999999997 L 1.9950007324218748 1.0709999999999997 L 1.9950007324218748 0.005999999999999783 L 2.223000732421875 0.005999999999999783 L 2.650500732421875 0.5474999999999998 L 2.650500732421875 0.005999999999999783 L 2.9430007324218748 0.005999999999999783 L 2.9430007324218748 1.0709999999999997 L 2.710500732421875 1.0709999999999997 L 2.287500732421875 0.5474999999999998 M 3.3765432128906245 0.005999999999999783 L 3.7035432128906245 0.005999999999999783 L 4.0425432128906245 1.0709999999999997 L 3.7455432128906248 1.0709999999999997 L 3.6810432128906245 0.8624999999999997 L 3.3975432128906244 0.8624999999999997 L 3.3345432128906247 1.0709999999999997 L 3.0360432128906245 1.0709999999999997 L 3.3765432128906245 0.005999999999999783 M 3.6345432128906245 0.6674999999999998 L 3.5400432128906245 0.29249999999999976 L 3.4410432128906248 0.6674999999999998 L 3.6345432128906245 0.6674999999999998 M 4.86752783203125 0.2609999999999997 L 4.56152783203125 0.2609999999999997 L 4.56152783203125 1.0709999999999997 L 4.26902783203125 1.0709999999999997 L 4.26902783203125 0.2609999999999997 L 3.96152783203125 0.2609999999999997 L 3.96152783203125 0.005999999999999783 L 4.86752783203125 0.005999999999999783 L 4.86752783203125 0.2609999999999997 M 5.92056298828125 0.005999999999999783 L 5.92056298828125 1.0709999999999997 L 5.62806298828125 1.0709999999999997 L 5.62806298828125 0.6539999999999997 L 5.27106298828125 0.6539999999999997 L 5.27106298828125 1.0709999999999997 L 4.97856298828125 1.0709999999999997 L 4.97856298828125 0.005999999999999783 L 5.27106298828125 0.005999999999999783 L 5.27106298828125 0.3989999999999997 L 5.62806298828125 0.3989999999999997 L 5.62806298828125 0.005999999999999783 L 5.92056298828125 0.005999999999999783 M 6.3540629882812505 0.005999999999999783 L 6.6810629882812504 0.005999999999999783 L 7.02006298828125 1.0709999999999997 L 6.72306298828125 1.0709999999999997 L 6.6585629882812505 0.8624999999999997 L 6.37506298828125 0.8624999999999997 L 6.31206298828125 1.0709999999999997 L 6.01356298828125 1.0709999999999997 L 6.3540629882812505 0.005999999999999783 M 6.6120629882812505 0.6674999999999998 L 6.5175629882812505 0.29249999999999976 L 6.41856298828125 0.6674999999999998 L 6.6120629882812505 0.6674999999999998 M 7.405551269531251 0.5474999999999998 L 7.405551269531251 1.0709999999999997 L 7.11305126953125 1.0709999999999997 L 7.11305126953125 0.005999999999999783 L 7.34105126953125 0.005999999999999783 L 7.76855126953125 0.5474999999999998 L 7.76855126953125 0.005999999999999783 L 8.06105126953125 0.005999999999999783 L 8.06105126953125 1.0709999999999997 L 7.828551269531251 1.0709999999999997 L 7.405551269531251 0.5474999999999998" fill="#007d73" fill-rule="nonzero"></path></g><g><path d=" M 0.267 1.4376374999999997 L 0.3165 1.4376374999999997 L 0.3915 1.6266374999999997 L 0.46725 1.4376374999999997 L 0.5175 1.4376374999999997 L 0.4245 1.6648874999999999 L 0.5265 1.9056374999999997 L 0.7192500000000001 1.4338874999999998 L 0.77625 1.4338874999999998 L 0.5505 1.9663874999999997 L 0.504 1.9663874999999997 L 0.39225 1.7031374999999997 L 0.27975 1.9663874999999997 L 0.234 1.9663874999999997 L 0.009000000000000001 1.4338874999999998 L 0.06525 1.4338874999999998 L 0.25875 1.9056374999999997 L 0.36 1.6648874999999999 L 0.267 1.4376374999999997 M 1.2101403808593751 1.9198874999999997 L 1.2101403808593751 1.9663874999999997 L 0.852390380859375 1.9663874999999997 L 0.852390380859375 1.4338874999999998 L 1.203390380859375 1.4338874999999998 L 1.203390380859375 1.4803874999999997 L 0.904890380859375 1.4803874999999997 L 0.904890380859375 1.6723874999999997 L 1.165140380859375 1.6723874999999997 L 1.165140380859375 1.7166374999999998 L 0.904890380859375 1.7166374999999998 L 0.904890380859375 1.9198874999999997 L 1.2101403808593751 1.9198874999999997 M 1.71077197265625 1.8291374999999996 Q 1.71077197265625 1.8688874999999998 1.6905219726562501 1.9000124999999997 Q 1.67027197265625 1.9311374999999997 1.63614697265625 1.9487624999999997 Q 1.6020219726562501 1.9663874999999997 1.5615219726562501 1.9663874999999997 L 1.3102719726562502 1.9663874999999997 L 1.3102719726562502 1.4338874999999998 L 1.5667719726562501 1.4338874999999998 Q 1.60427197265625 1.4338874999999998 1.6316469726562501 1.4537624999999998 Q 1.65902197265625 1.4736374999999997 1.6736469726562502 1.5047624999999998 Q 1.68827197265625 1.5358874999999999 1.68827197265625 1.5696374999999998 Q 1.68827197265625 1.6093874999999997 1.6680219726562502 1.6431374999999997 Q 1.64777197265625 1.6768874999999999 1.61177197265625 1.6933874999999996 Q 1.6575219726562502 1.7068874999999997 1.6841469726562501 1.7436374999999997 Q 1.71077197265625 1.7803874999999998 1.71077197265625 1.8291374999999996 M 1.65827197265625 1.8201374999999997 Q 1.65827197265625 1.7931374999999998 1.64627197265625 1.7702624999999999 Q 1.63427197265625 1.7473874999999996 1.6136469726562501 1.7331374999999998 Q 1.59302197265625 1.7188874999999997 1.5667719726562501 1.7188874999999997 L 1.3627719726562502 1.7188874999999997 L 1.3627719726562502 1.9206374999999998 L 1.5615219726562501 1.9206374999999998 Q 1.58852197265625 1.9206374999999998 1.6102719726562502 1.9063874999999997 Q 1.6320219726562502 1.8921374999999998 1.6451469726562502 1.8692624999999998 Q 1.65827197265625 1.8463874999999996 1.65827197265625 1.8201374999999997 M 1.3627719726562502 1.4796374999999997 L 1.3627719726562502 1.6761374999999998 L 1.54577197265625 1.6761374999999998 Q 1.57202197265625 1.6761374999999998 1.59227197265625 1.6622624999999998 Q 1.61252197265625 1.6483874999999997 1.62452197265625 1.6258874999999997 Q 1.63652197265625 1.6033874999999997 1.63652197265625 1.5778874999999997 Q 1.63652197265625 1.5508874999999998 1.6252719726562501 1.5287624999999998 Q 1.6140219726562501 1.5066374999999996 1.59452197265625 1.4931374999999998 Q 1.5750219726562502 1.4796374999999997 1.5502719726562502 1.4796374999999997 L 1.3627719726562502 1.4796374999999997 M 2.003287353515625 1.9663874999999997 L 2.003287353515625 1.4338874999999998 L 2.1840373535156252 1.4338874999999998 Q 2.2687873535156253 1.4338874999999998 2.3254123535156253 1.4695124999999998 Q 2.382037353515625 1.5051374999999998 2.4105373535156254 1.5655124999999996 Q 2.439037353515625 1.6258874999999997 2.439037353515625 1.6993874999999998 Q 2.439037353515625 1.7803874999999998 2.4079123535156253 1.8403874999999998 Q 2.376787353515625 1.9003874999999997 2.319412353515625 1.9333874999999998 Q 2.262037353515625 1.9663874999999997 2.1840373535156252 1.9663874999999997 L 2.003287353515625 1.9663874999999997 M 2.3865373535156253 1.6993874999999998 Q 2.3865373535156253 1.6356374999999996 2.3629123535156253 1.5861374999999998 Q 2.3392873535156253 1.5366374999999997 2.2942873535156254 1.5085124999999997 Q 2.249287353515625 1.4803874999999997 2.1840373535156252 1.4803874999999997 L 2.0557873535156252 1.4803874999999997 L 2.0557873535156252 1.9198874999999997 L 2.1840373535156252 1.9198874999999997 Q 2.250037353515625 1.9198874999999997 2.295037353515625 1.8906374999999997 Q 2.3400373535156254 1.8613874999999998 2.3632873535156254 1.8115124999999996 Q 2.3865373535156253 1.7616374999999997 2.3865373535156253 1.6993874999999998 M 2.898432495117188 1.9198874999999997 L 2.898432495117188 1.9663874999999997 L 2.5406824951171876 1.9663874999999997 L 2.5406824951171876 1.4338874999999998 L 2.8916824951171876 1.4338874999999998 L 2.8916824951171876 1.4803874999999997 L 2.593182495117188 1.4803874999999997 L 2.593182495117188 1.6723874999999997 L 2.853432495117188 1.6723874999999997 L 2.853432495117188 1.7166374999999998 L 2.593182495117188 1.7166374999999998 L 2.593182495117188 1.9198874999999997 L 2.898432495117188 1.9198874999999997 M 2.9963140869140625 1.4338874999999998 L 3.1868140869140626 1.9011374999999997 L 3.3765640869140627 1.4338874999999998 L 3.4313140869140626 1.4338874999999998 L 3.2108140869140627 1.9663874999999997 L 3.1628140869140626 1.9663874999999997 L 2.9415640869140627 1.4338874999999998 L 2.9963140869140625 1.4338874999999998 M 3.8667011718750004 1.9198874999999997 L 3.8667011718750004 1.9663874999999997 L 3.508951171875 1.9663874999999997 L 3.508951171875 1.4338874999999998 L 3.859951171875 1.4338874999999998 L 3.859951171875 1.4803874999999997 L 3.5614511718750004 1.4803874999999997 L 3.5614511718750004 1.6723874999999997 L 3.8217011718750005 1.6723874999999997 L 3.8217011718750005 1.7166374999999998 L 3.5614511718750004 1.7166374999999998 L 3.5614511718750004 1.9198874999999997 L 3.8667011718750004 1.9198874999999997 M 3.966832763671875 1.9663874999999997 L 3.966832763671875 1.4338874999999998 L 4.019332763671875 1.4338874999999998 L 4.019332763671875 1.9198874999999997 L 4.3268327636718755 1.9198874999999997 L 4.3268327636718755 1.9663874999999997 L 3.966832763671875 1.9663874999999997 M 4.597969848632813 1.9701374999999997 Q 4.5417198486328125 1.9701374999999997 4.495969848632813 1.9476374999999997 Q 4.450219848632813 1.9251374999999997 4.417219848632813 1.8865124999999998 Q 4.384219848632813 1.8478874999999997 4.366219848632813 1.7995124999999996 Q 4.348219848632813 1.7511374999999998 4.348219848632813 1.7001374999999999 Q 4.348219848632813 1.6468874999999996 4.366969848632813 1.5985124999999998 Q 4.385719848632813 1.5501374999999997 4.419844848632813 1.5122624999999998 Q 4.453969848632813 1.4743874999999997 4.499719848632813 1.4522624999999998 Q 4.545469848632813 1.4301374999999998 4.598719848632813 1.4301374999999998 Q 4.654969848632813 1.4301374999999998 4.700719848632813 1.4533874999999998 Q 4.746469848632813 1.4766374999999998 4.779094848632813 1.5156374999999997 Q 4.811719848632813 1.5546374999999997 4.829719848632813 1.6026374999999997 Q 4.847719848632813 1.6506374999999998 4.847719848632813 1.7008874999999997 Q 4.847719848632813 1.7541374999999997 4.828969848632813 1.8025124999999997 Q 4.810219848632813 1.8508874999999998 4.7764698486328125 1.8887624999999997 Q 4.742719848632813 1.9266374999999998 4.696969848632813 1.9483874999999997 Q 4.651219848632813 1.9701374999999997 4.597969848632813 1.9701374999999997 M 4.4007198486328125 1.7001374999999999 Q 4.4007198486328125 1.7436374999999997 4.414969848632813 1.7837624999999997 Q 4.429219848632813 1.8238874999999997 4.455469848632813 1.8550124999999997 Q 4.481719848632813 1.8861374999999998 4.5180948486328125 1.9045124999999998 Q 4.554469848632813 1.9228874999999996 4.597969848632813 1.9228874999999996 Q 4.643719848632813 1.9228874999999996 4.680094848632812 1.9037624999999998 Q 4.716469848632813 1.8846374999999997 4.742344848632813 1.8527624999999996 Q 4.768219848632813 1.8208874999999998 4.781719848632813 1.7811374999999998 Q 4.795219848632813 1.7413874999999996 4.795219848632813 1.7001374999999999 Q 4.795219848632813 1.6566374999999998 4.780969848632813 1.6168874999999998 Q 4.766719848632813 1.5771374999999996 4.740094848632813 1.5456374999999998 Q 4.713469848632813 1.5141374999999997 4.677469848632813 1.4961374999999997 Q 4.641469848632813 1.4781374999999997 4.597969848632813 1.4781374999999997 Q 4.552969848632813 1.4781374999999997 4.5165948486328125 1.4968874999999997 Q 4.480219848632813 1.5156374999999997 4.454344848632813 1.5475124999999998 Q 4.428469848632813 1.5793874999999997 4.414594848632813 1.6191374999999997 Q 4.4007198486328125 1.6588874999999996 4.4007198486328125 1.7001374999999999 M 4.947827270507813 1.9663874999999997 L 4.947827270507813 1.4338874999999998 L 5.168327270507813 1.4338874999999998 Q 5.202827270507813 1.4338874999999998 5.231702270507813 1.4481374999999996 Q 5.260577270507813 1.4623874999999997 5.281577270507813 1.4867624999999998 Q 5.302577270507813 1.5111374999999998 5.314577270507813 1.5407624999999996 Q 5.326577270507813 1.5703874999999998 5.326577270507813 1.6011374999999997 Q 5.326577270507813 1.6446374999999998 5.307452270507813 1.6832624999999997 Q 5.288327270507813 1.7218874999999998 5.253827270507813 1.7458874999999998 Q 5.219327270507813 1.7698874999999998 5.172827270507813 1.7698874999999998 L 5.000327270507813 1.7698874999999998 L 5.000327270507813 1.9663874999999997 L 4.947827270507813 1.9663874999999997 M 5.000327270507813 1.7233874999999999 L 5.170577270507813 1.7233874999999999 Q 5.202077270507813 1.7233874999999999 5.225327270507813 1.7061374999999996 Q 5.248577270507813 1.6888874999999997 5.261327270507813 1.6611374999999997 Q 5.274077270507813 1.6333874999999998 5.274077270507813 1.6011374999999997 Q 5.274077270507813 1.5681374999999997 5.259077270507813 1.5403874999999998 Q 5.2440772705078125 1.5126374999999999 5.219702270507813 1.4965124999999997 Q 5.195327270507813 1.4803874999999997 5.166077270507813 1.4803874999999997 L 5.000327270507813 1.4803874999999997 L 5.000327270507813 1.7233874999999999 M 5.773209228515626 1.9198874999999997 L 5.773209228515626 1.9663874999999997 L 5.415459228515625 1.9663874999999997 L 5.415459228515625 1.4338874999999998 L 5.766459228515625 1.4338874999999998 L 5.766459228515625 1.4803874999999997 L 5.4679592285156255 1.4803874999999997 L 5.4679592285156255 1.6723874999999997 L 5.728209228515626 1.6723874999999997 L 5.728209228515626 1.7166374999999998 L 5.4679592285156255 1.7166374999999998 L 5.4679592285156255 1.9198874999999997 L 5.773209228515626 1.9198874999999997 M 5.8733408203125 1.9663874999999997 L 5.8733408203125 1.4338874999999998 L 6.098340820312501 1.4338874999999998 Q 6.1328408203125 1.4338874999999998 6.161340820312501 1.4481374999999996 Q 6.189840820312501 1.4623874999999997 6.211215820312501 1.4867624999999998 Q 6.232590820312501 1.5111374999999998 6.2442158203125 1.5407624999999996 Q 6.255840820312501 1.5703874999999998 6.255840820312501 1.6011374999999997 Q 6.255840820312501 1.6393874999999998 6.2412158203125 1.6731374999999997 Q 6.2265908203125 1.7068874999999997 6.1999658203125 1.7301374999999997 Q 6.1733408203125 1.7533874999999997 6.137340820312501 1.7608874999999997 L 6.2678408203125 1.9663874999999997 L 6.208590820312501 1.9663874999999997 L 6.0833408203125 1.7698874999999998 L 5.925840820312501 1.7698874999999998 L 5.925840820312501 1.9663874999999997 L 5.8733408203125 1.9663874999999997 M 5.925840820312501 1.7233874999999999 L 6.099840820312501 1.7233874999999999 Q 6.1313408203125 1.7233874999999999 6.1545908203125 1.7061374999999996 Q 6.1778408203125 1.6888874999999997 6.190590820312501 1.6607624999999997 Q 6.2033408203125004 1.6326374999999997 6.2033408203125004 1.6011374999999997 Q 6.2033408203125004 1.5688874999999998 6.188715820312501 1.5415124999999996 Q 6.1740908203125 1.5141374999999997 6.1497158203125 1.4972624999999997 Q 6.1253408203125 1.4803874999999997 6.095340820312501 1.4803874999999997 L 5.925840820312501 1.4803874999999997 L 5.925840820312501 1.7233874999999999" fill="#61246d" fill-rule="nonzero"></path></g></g><defs><clipPath id="SvgjsClipPath141718"><path d=" M -4.085307378589473 -1.079170858931184 h 3.685307378589473 v 4.124729217862368 h -3.685307378589473 Z"></path></clipPath><clipPath id="SvgjsClipPath1417164f782bfd-07cf-4028-ba97-6ed8eb4caafd"><path d=" M -4.085307378589473 -1.079170858931184 L -0.3999999999999999 -1.079170858931184 L -0.3999999999999999 3.0455583589311837 L -4.085307378589472 3.0455583589311837 Z"></path></clipPath></defs></svg>