<svg width="79" height="20" viewBox="0 0 79 20" fill="none" xmlns="http://www.w3.org/2000/svg">
<path d="M17.4393 5.53242V19.8075H14.8486L3.10331 5.41159H2.9994V19.8075H0V0H2.63227L14.329 14.5815H14.4537V5.53242H17.4393Z" fill="url(#paint0_linear_4760_1123)"/>
<path d="M29.3243 10.277C29.2273 9.94237 29.0911 9.64669 28.9156 9.38998C28.7401 9.12868 28.5254 8.90865 28.2714 8.72986C28.022 8.5465 27.7357 8.40668 27.4125 8.31041C27.0938 8.21415 26.7405 8.16601 26.3526 8.16601C25.6276 8.16601 24.9903 8.34479 24.4408 8.70236C23.8958 9.05992 23.471 9.58022 23.1662 10.2633C22.8614 10.9417 22.709 11.7714 22.709 12.7525C22.709 13.7335 22.8591 14.5678 23.1593 15.2554C23.4594 15.943 23.8843 16.4679 24.4338 16.8301C24.9834 17.1876 25.6322 17.3664 26.3803 17.3664C27.0592 17.3664 27.6387 17.2472 28.119 17.0088C28.6039 16.7659 28.9734 16.4244 29.2273 15.9843C29.486 15.5442 29.6153 15.0239 29.6153 14.4234L30.2248 14.5128H26.5674V12.2711H32.5038V14.0452C32.5038 15.2829 32.2406 16.3464 31.7141 17.2358C31.1877 18.1205 30.4627 18.8035 29.5391 19.2849C28.6155 19.7616 27.5579 20 26.3665 20C25.0365 20 23.8681 19.7089 22.8614 19.1267C21.8547 18.5399 21.0696 17.7079 20.5062 16.6306C19.9474 15.5488 19.668 14.2652 19.668 12.78C19.668 11.6385 19.8343 10.6208 20.1668 9.72692C20.5039 8.82842 20.9749 8.06745 21.5799 7.44401C22.1849 6.82056 22.8891 6.3461 23.6927 6.02063C24.4962 5.69515 25.3667 5.53242 26.3041 5.53242C27.1077 5.53242 27.8558 5.64931 28.5485 5.8831C29.2412 6.11231 29.8554 6.43779 30.3911 6.85953C30.9314 7.28127 31.3724 7.78324 31.7141 8.36542C32.0559 8.94303 32.2752 9.58022 32.3722 10.277H29.3243Z" fill="url(#paint1_linear_4760_1123)"/>
<path d="M36.7639 19.8075H33.5498L38.4796 5.53242H42.3449L47.203 19.8075H43.9888L40.4353 8.94303H40.3244L36.7639 19.8075ZM36.5631 14.2721H44.1551V16.5963H36.5631V14.2721Z" fill="url(#paint2_linear_4760_1123)"/>
<path d="M48.9105 19.8075V5.53242H54.5028C55.5788 5.53242 56.5321 5.81598 57.2895 6.22397C58.0468 6.62737 58.5922 7.3019 58.9893 8.02161C59.3911 8.73674 59.592 9.56189 59.592 10.4971C59.592 11.4322 59.3888 12.2574 58.9824 12.9725C58.576 13.6876 57.9872 14.2446 57.216 14.6434C56.4494 15.0422 55.5212 15.2416 54.4313 15.2416H50.8639V12.8556H53.9464C54.5237 12.8556 54.9993 12.757 55.3734 12.5599C55.7521 12.3582 56.0338 12.0809 56.2185 11.7279C56.4078 11.3703 56.5025 10.9601 56.5025 10.4971C56.5025 10.0295 56.4078 9.62148 56.2185 9.27308C56.0338 8.9201 55.7521 8.64735 55.3734 8.45481C54.9947 8.2577 54.5144 8.15914 53.9326 8.15914H51.9099V19.8075H48.9105Z" fill="url(#paint3_linear_4760_1123)"/>
<path d="M78.8859 3.45776V0.345776H14.4557V6.91552H17.4413V3.45776H78.8859Z" fill="url(#paint4_linear_4760_1123)"/>
<path d="M61.4694 19.808V9.05501H64.3303V10.8978H64.4411C64.6351 10.2423 64.9606 9.74722 65.4178 9.41257C65.875 9.07335 66.4015 8.90373 66.9972 8.90373C67.145 8.90373 67.3043 8.9129 67.4752 8.93124C67.646 8.94957 67.7961 8.97479 67.9254 9.00688V11.6061C67.7869 11.5648 67.5952 11.5282 67.3505 11.4961C67.1057 11.464 66.8817 11.4479 66.6786 11.4479C66.2445 11.4479 65.8565 11.5419 65.5148 11.7299C65.1777 11.9132 64.9099 12.1699 64.7113 12.5C64.5173 12.8301 64.4203 13.2105 64.4203 13.6415V19.808H61.4694Z" fill="url(#paint5_linear_4760_1123)"/>
<path d="M73.7632 19.8232C72.6872 19.8232 71.7566 19.5963 70.9716 19.1424C70.1911 18.684 69.5885 18.0468 69.1636 17.2308C68.7388 16.4103 68.5263 15.4591 68.5263 14.3772C68.5263 13.2862 68.7388 12.3327 69.1636 11.5167C69.5885 10.6961 70.1911 10.0589 70.9716 9.60511C71.7566 9.14669 72.6872 8.91749 73.7632 8.91749C74.8392 8.91749 75.7674 9.14669 76.5478 9.60511C77.3329 10.0589 77.9379 10.6961 78.3627 11.5167C78.7876 12.3327 79 13.2862 79 14.3772C79 15.4591 78.7876 16.4103 78.3627 17.2308C77.9379 18.0468 77.3329 18.684 76.5478 19.1424C75.7674 19.5963 74.8392 19.8232 73.7632 19.8232ZM73.777 17.554C74.2665 17.554 74.6752 17.4165 75.0031 17.1415C75.331 16.8618 75.578 16.4813 75.7443 16C75.9152 15.5187 76.0006 14.9709 76.0006 14.3566C76.0006 13.7423 75.9152 13.1945 75.7443 12.7132C75.578 12.2318 75.331 11.8513 75.0031 11.5717C74.6752 11.2921 74.2665 11.1523 73.777 11.1523C73.2829 11.1523 72.8673 11.2921 72.5302 11.5717C72.1977 11.8513 71.946 12.2318 71.7751 12.7132C71.6089 13.1945 71.5257 13.7423 71.5257 14.3566C71.5257 14.9709 71.6089 15.5187 71.7751 16C71.946 16.4813 72.1977 16.8618 72.5302 17.1415C72.8673 17.4165 73.2829 17.554 73.777 17.554Z" fill="url(#paint6_linear_4760_1123)"/>
<defs>
<linearGradient id="paint0_linear_4760_1123" x1="39.5" y1="0" x2="39.5" y2="20" gradientUnits="userSpaceOnUse">
<stop stop-color="#138086"/>
<stop offset="1" stop-color="#062628"/>
</linearGradient>
<linearGradient id="paint1_linear_4760_1123" x1="39.5" y1="0" x2="39.5" y2="20" gradientUnits="userSpaceOnUse">
<stop stop-color="#138086"/>
<stop offset="1" stop-color="#062628"/>
</linearGradient>
<linearGradient id="paint2_linear_4760_1123" x1="39.5" y1="0" x2="39.5" y2="20" gradientUnits="userSpaceOnUse">
<stop stop-color="#138086"/>
<stop offset="1" stop-color="#062628"/>
</linearGradient>
<linearGradient id="paint3_linear_4760_1123" x1="39.5" y1="0" x2="39.5" y2="20" gradientUnits="userSpaceOnUse">
<stop stop-color="#138086"/>
<stop offset="1" stop-color="#062628"/>
</linearGradient>
<linearGradient id="paint4_linear_4760_1123" x1="39.5" y1="0" x2="39.5" y2="20" gradientUnits="userSpaceOnUse">
<stop stop-color="#138086"/>
<stop offset="1" stop-color="#062628"/>
</linearGradient>
<linearGradient id="paint5_linear_4760_1123" x1="39.5" y1="0" x2="39.5" y2="20" gradientUnits="userSpaceOnUse">
<stop stop-color="#138086"/>
<stop offset="1" stop-color="#062628"/>
</linearGradient>
<linearGradient id="paint6_linear_4760_1123" x1="39.5" y1="0" x2="39.5" y2="20" gradientUnits="userSpaceOnUse">
<stop stop-color="#138086"/>
<stop offset="1" stop-color="#062628"/>
</linearGradient>
</defs>
</svg>
