<svg xmlns="http://www.w3.org/2000/svg" version="1.1" xmlns:xlink="http://www.w3.org/1999/xlink" xmlns:svgjs="http://svgjs.dev/svgjs" viewBox="0 0 15.661049533164 6.0270110181163306"><g transform="matrix(0.7693058749874567,0,0,0.7693058749874567,2.501654076048337,2.239718427348907)"><rect width="17.46838791243736" height="17.46838791243736" x="-1.8073383792733608" y="-7.728368956218681" fill="#ffffff"></rect><g transform="matrix(1,0,0,1,0,0)" clip-path="url(#SvgjsClipPath115765)"><g clip-path="url(#SvgjsClipPath115760bc2a0151-cc77-4121-8979-387d861b34dc)"><path d=" M 11.959220628677741 1.482785433565144 L 12.052679092011452 1.3893269702314326 C 12.264456890698678 1.1775491715442072 12.264456890698678 0.8341008284557931 12.052679092011452 0.6227834162874537 L 11.959220628677741 0.5293249529537423 L 12.169617267808311 0.3189283138231731 C 12.227625969187855 0.26091961244362927 12.227625969187855 0.16700076259103191 12.169617267808311 0.1089920612114883 C 12.111608566428767 0.050983359831944464 12.017689716576172 0.050983359831944464 11.959681015196626 0.1089920612114883 L 11.749284376066058 0.31938870034205746 L 11.593673732682834 0.1637780569588354 L 11.804070371813404 -0.04661858217173309 C 11.862079073192948 -0.10462728355127826 11.862079073192948 -0.1985461334038735 11.804070371813404 -0.2565548347834179 C 11.74606167043386 -0.3145635361629624 11.652142820581265 -0.3145635361629624 11.594134119201719 -0.2565548347834179 L 11.38373748007115 -0.04615819565284873 L 11.228126836687927 -0.2017688390360708 L 11.438523475818497 -0.41216547816663995 C 11.496532177198041 -0.47017417954618446 11.496532177198041 -0.5640930293987797 11.438523475818497 -0.6221017307783248 C 11.380514774438954 -0.6801104321578693 11.286595924586358 -0.6801104321578693 11.228587223206812 -0.6221017307783248 L 11.018190584076244 -0.4117050916477548 L 10.86257994069302 -0.5673157350309769 L 11.07297657982359 -0.7777123741615468 C 11.130985281203134 -0.8357210755410913 11.130985281203134 -0.9296399253936866 11.07297657982359 -0.987648626773231 L 11.07297657982359 -0.987648626773231 C 11.014967878444047 -1.0456573281527761 10.921049028591451 -1.0456573281527761 10.863040327211905 -0.987648626773231 L 10.652643688081337 -0.7772519876426617 L 10.559185224747626 -0.8707104509763725 C 10.347407426060402 -1.0824882496635977 10.003959082971988 -1.0824882496635977 9.792641670803647 -0.8707104509763725 L 9.699183207469936 -0.7772519876426617 L 9.488786568339368 -0.987648626773231 C 9.430777866959822 -1.0456573281527761 9.336859017107226 -1.0456573281527761 9.278850315727682 -0.987648626773231 L 9.278850315727682 -0.987648626773231 C 9.220841614348139 -0.9296399253936866 9.220841614348139 -0.8357210755410913 9.278850315727682 -0.7777123741615468 L 9.489246954858253 -0.5673157350309769 L 9.33363631147503 -0.4117050916477548 L 9.12323967234446 -0.6221017307783248 C 9.065230970964915 -0.6801104321578693 8.97131212111232 -0.6801104321578693 8.913303419732776 -0.6221017307783248 C 8.855294718353232 -0.5640930293987797 8.855294718353232 -0.47017417954618446 8.913303419732776 -0.41216547816663995 L 9.123700058863346 -0.2017688390360708 L 8.968089415480122 -0.04615819565284873 L 8.757692776349554 -0.2565548347834179 C 8.699684074970008 -0.3145635361629624 8.605765225117413 -0.3145635361629624 8.547756523737869 -0.2565548347834179 C 8.489747822358325 -0.1985461334038735 8.489747822358325 -0.10462728355127826 8.547756523737869 -0.04661858217173309 L 8.758153162868439 0.1637780569588354 L 8.602542519485215 0.31938870034205746 L 8.392145880354647 0.1089920612114883 C 8.334137178975102 0.050983359831944464 8.240218329122508 0.050983359831944464 8.182209627742962 0.1089920612114883 C 8.124200926363418 0.16700076259103191 8.124200926363418 0.26091961244362927 8.182209627742962 0.3189283138231731 L 8.392606266873532 0.5293249529537423 L 8.299147803539821 0.6227834162874537 C 8.087370004852596 0.834561214974679 8.087370004852596 1.178009558063093 8.299147803539821 1.3893269702314326 L 8.392606266873532 1.482785433565144 L 8.182209627742962 1.6931820726957132 C 8.124200926363418 1.751190774075257 8.124200926363418 1.8451096239278528 8.182209627742962 1.903118325307398 C 8.240218329122508 1.9611270266869418 8.334137178975102 1.9611270266869418 8.392145880354647 1.903118325307398 L 8.602542519485215 1.6927216861768275 L 8.758153162868439 1.8483323295600496 L 8.547756523737869 2.05872896869062 C 8.489747822358325 2.116737670070164 8.489747822358325 2.2106565199227597 8.547756523737869 2.2686652213023035 C 8.605765225117413 2.3266739226818487 8.699684074970008 2.3266739226818487 8.757692776349554 2.2686652213023035 L 8.968089415480122 2.0582685821717344 L 9.123700058863346 2.2138792255549564 L 8.913303419732776 2.4242758646855256 C 8.855294718353232 2.4822845660650708 8.855294718353232 2.5762034159176666 8.913303419732776 2.6342121172972104 C 8.97131212111232 2.6922208186767542 9.065230970964915 2.6922208186767542 9.12323967234446 2.6342121172972104 L 9.33363631147503 2.4238154781666412 L 9.489246954858253 2.5794261215498633 L 9.278850315727682 2.7898227606804324 C 9.220841614348139 2.8478314620599763 9.220841614348139 2.9417503119125734 9.278850315727682 2.9997590132921172 L 9.278850315727682 2.9997590132921172 C 9.336859017107226 3.057767714671661 9.430777866959822 3.057767714671661 9.488786568339368 2.9997590132921172 L 9.699183207469936 2.7893623741615476 L 9.792641670803647 2.882820837495258 C 10.004419469490871 3.0945986361824835 10.347867812579286 3.0945986361824835 10.559185224747626 2.882820837495258 L 10.652643688081337 2.7893623741615476 L 10.863040327211905 2.9997590132921172 C 10.921049028591451 3.057767714671661 11.014967878444047 3.057767714671661 11.07297657982359 2.9997590132921172 L 11.07297657982359 2.9997590132921172 C 11.130985281203134 2.9417503119125734 11.130985281203134 2.8478314620599763 11.07297657982359 2.7898227606804324 L 10.86257994069302 2.5794261215498633 L 11.018190584076244 2.4238154781666412 L 11.228587223206812 2.6342121172972104 C 11.286595924586358 2.6922208186767542 11.380514774438954 2.6922208186767542 11.438523475818497 2.6342121172972104 C 11.496532177198041 2.5762034159176666 11.496532177198041 2.4822845660650708 11.438523475818497 2.4242758646855256 L 11.228126836687927 2.2138792255549564 L 11.38373748007115 2.0582685821717344 L 11.594134119201719 2.2686652213023035 C 11.652142820581265 2.3266739226818487 11.74606167043386 2.3266739226818487 11.804070371813404 2.2686652213023035 C 11.862079073192948 2.2106565199227597 11.862079073192948 2.116737670070164 11.804070371813404 2.05872896869062 L 11.593673732682834 1.8483323295600496 L 11.749284376066058 1.6927216861768275 L 11.959681015196626 1.903118325307398 C 12.017689716576172 1.9611270266869418 12.111608566428767 1.9611270266869418 12.169617267808311 1.903118325307398 C 12.227625969187855 1.8451096239278528 12.227625969187855 1.751190774075257 12.169617267808311 1.6931820726957132 L 11.959220628677741 1.482785433565144 Z" fill="#503ee1" transform="matrix(1,0,0,1,0,0)" fill-rule="nonzero"></path></g><g clip-path="url(#SvgjsClipPath115760bc2a0151-cc77-4121-8979-387d861b34dc)"><path d=" M 13.689353166648598 1.4031385657979905 L 12.14153369015631 2.9509580422902784 C 11.921929320648033 3.1705624117985542 11.566050541549718 3.1705624117985542 11.34690655856033 2.9509580422902784 L 9.799087082068041 1.4031385657979905 C 9.579482712559766 1.1835341962897146 9.579482712559766 0.8276554171913988 9.799087082068041 0.6085114342020099 L 11.34690655856033 -0.9393080422902782 C 11.566510928068606 -1.1589124117985534 11.92238970716692 -1.1589124117985534 12.14153369015631 -0.9393080422902782 L 13.689353166648598 0.6085114342020099 C 13.908497149637988 0.8276554171913988 13.908497149637988 1.183534196289716 13.689353166648598 1.4031385657979905 Z" fill="#4976f2" transform="matrix(1,0,0,1,0,0)" fill-rule="nonzero"></path></g><g clip-path="url(#SvgjsClipPath115760bc2a0151-cc77-4121-8979-387d861b34dc)"><path d=" M 12.169156881289425 0.10853167469260239 C 12.111148179909883 0.05052297331305877 12.017229330057287 0.05052297331305877 11.959220628677741 0.10853167469260239 L 11.748823989547173 0.31892831382317177 L 11.59321334616395 0.1633176704399497 L 11.803609985294518 -0.04707896869061967 C 11.861618686674063 -0.10508767007016406 11.861618686674063 -0.1990065199227593 11.803609985294518 -0.25701522130230436 C 11.745601283914976 -0.31502392268184876 11.65168243406238 -0.31502392268184876 11.593673732682834 -0.25701522130230436 L 11.383277093552266 -0.046618582171734424 L 11.227666450169043 -0.20222922555495648 L 11.438063089299614 -0.4126258646855264 C 11.496071790679157 -0.4706345660650708 11.496071790679157 -0.5645534159176662 11.438063089299614 -0.6225621172972106 C 11.380054387920069 -0.6805708186767556 11.286135538067473 -0.6805708186767556 11.228126836687927 -0.6225621172972106 L 11.01773019755736 -0.4121654781666413 L 10.91828670947814 -0.5116089662458602 L 9.798166309030272 0.6085114342020099 C 9.578561939521997 0.8281158037102858 9.578561939521997 1.1839945828086003 9.798166309030272 1.4031385657979905 L 10.91828670947814 2.5232589662458587 L 11.01773019755736 2.42381547816664 L 11.228126836687927 2.634212117297209 C 11.286135538067473 2.692220818676753 11.380054387920069 2.692220818676753 11.438063089299614 2.634212117297209 C 11.496071790679157 2.576203415917665 11.496071790679157 2.4822845660650694 11.438063089299614 2.4242758646855243 L 11.227666450169043 2.213879225554955 L 11.383277093552266 2.058268582171733 L 11.593673732682834 2.268665221302302 C 11.65168243406238 2.3266739226818474 11.745601283914976 2.3266739226818474 11.803609985294518 2.268665221302302 C 11.861618686674063 2.2106565199227584 11.861618686674063 2.1167376700701626 11.803609985294518 2.0587289686906187 L 11.59321334616395 1.8483323295600482 L 11.748823989547173 1.6927216861768262 L 11.959220628677741 1.9031183253073967 C 12.017229330057287 1.9611270266869405 12.111148179909883 1.9611270266869405 12.169156881289425 1.9031183253073967 C 12.22716558266897 1.8451096239278515 12.22716558266897 1.7511907740752557 12.169156881289425 1.6931820726957119 L 11.958760242158856 1.4827854335651427 L 12.052218705492567 1.3893269702314313 C 12.263996504179792 1.177549171544206 12.263996504179792 0.8341008284557918 12.052218705492567 0.6227834162874524 L 11.958760242158856 0.5293249529537409 L 12.169156881289425 0.31892831382317177 C 12.22716558266897 0.26045922592474335 12.22716558266897 0.16654037607214756 12.169156881289425 0.10853167469260239 Z" fill="#3de9f2" transform="matrix(1,0,0,1,0,0)" fill-rule="nonzero"></path></g><g clip-path="url(#SvgjsClipPath115760bc2a0151-cc77-4121-8979-387d861b34dc)"><path d=" M 10.55412097303989 1.4031385657979905 L 9.0063014965476 2.9509580422902784 C 8.786697127039325 3.1705624117985542 8.430818347941008 3.1705624117985542 8.21167436495162 2.9509580422902784 L 6.6638548884593325 1.4031385657979905 C 6.444250518951057 1.1835341962897146 6.444250518951057 0.8276554171913988 6.6638548884593325 0.6085114342020099 L 8.21167436495162 -0.9393080422902782 C 8.431278734459895 -1.1589124117985534 8.78715751355821 -1.1589124117985534 9.0063014965476 -0.9393080422902782 L 10.55412097303989 0.6085114342020099 C 10.773264956029278 0.8276554171913988 10.773264956029278 1.183534196289716 10.55412097303989 1.4031385657979905 Z" fill="#ea5ea1" transform="matrix(1,0,0,1,0,0)" fill-rule="nonzero"></path></g><g clip-path="url(#SvgjsClipPath115760bc2a0151-cc77-4121-8979-387d861b34dc)"><path d=" M 10.55412097303989 0.6085114342020099 L 9.43400057259202 -0.5116089662458595 L 9.334096697993916 -0.4117050916477548 L 9.123700058863346 -0.6221017307783248 C 9.065691357483802 -0.6801104321578693 8.971772507631206 -0.6801104321578693 8.913763806251662 -0.6221017307783248 C 8.855755104872117 -0.5640930293987797 8.855755104872117 -0.47017417954618446 8.913763806251662 -0.41216547816663995 L 9.12416044538223 -0.2017688390360708 L 8.968549801999009 -0.04615819565284873 L 8.758153162868439 -0.2565548347834179 C 8.700144461488895 -0.3145635361629624 8.606225611636301 -0.3145635361629624 8.548216910256755 -0.2565548347834179 C 8.49020820887721 -0.1985461334038735 8.49020820887721 -0.10462728355127826 8.548216910256755 -0.04661858217173309 L 8.758613549387324 0.1637780569588354 L 8.603002906004102 0.31938870034205746 L 8.392606266873534 0.1089920612114883 C 8.334597565493988 0.050983359831944464 8.240678715641392 0.050983359831944464 8.182670014261848 0.1089920612114883 C 8.124661312882305 0.16700076259103191 8.124661312882305 0.26091961244362927 8.182670014261848 0.3189283138231731 L 8.393066653392419 0.5293249529537423 L 8.299608190058708 0.6227834162874537 C 8.087830391371483 0.834561214974679 8.087830391371483 1.178009558063093 8.299608190058708 1.3893269702314326 L 8.393066653392419 1.482785433565144 L 8.182670014261848 1.6931820726957132 C 8.124661312882305 1.751190774075257 8.124661312882305 1.8451096239278528 8.182670014261848 1.903118325307398 C 8.240678715641392 1.9611270266869418 8.334597565493988 1.9611270266869418 8.392606266873534 1.903118325307398 L 8.603002906004102 1.6927216861768275 L 8.758613549387324 1.8483323295600496 L 8.548216910256755 2.05872896869062 C 8.49020820887721 2.116737670070164 8.49020820887721 2.2106565199227597 8.548216910256755 2.2686652213023035 C 8.606225611636301 2.3266739226818487 8.700144461488895 2.3266739226818487 8.758153162868439 2.2686652213023035 L 8.968549801999009 2.0582685821717344 L 9.12416044538223 2.2138792255549564 L 8.913763806251662 2.4242758646855256 C 8.855755104872117 2.4822845660650708 8.855755104872117 2.5762034159176666 8.913763806251662 2.6342121172972104 C 8.971772507631206 2.6922208186767542 9.065691357483802 2.6922208186767542 9.123700058863346 2.6342121172972104 L 9.334096697993916 2.4238154781666412 L 9.43400057259202 2.5237193527647444 L 10.55412097303989 1.4035989523168748 C 10.773264956029278 1.183534196289716 10.773264956029278 0.8276554171913988 10.55412097303989 0.6085114342020099 Z" fill="#ff97f8" transform="matrix(1,0,0,1,0,0)" fill-rule="nonzero"></path></g><g clip-path="url(#SvgjsClipPath115760bc2a0151-cc77-4121-8979-387d861b34dc)"><path d=" M 10.55412097303989 0.6085114342020099 L 10.176604027553964 0.23099448871608574 L 9.799087082068041 0.6085114342020099 C 9.579482712559766 0.8281158037102858 9.579482712559766 1.1839945828086003 9.799087082068041 1.4031385657979905 L 10.176604027553964 1.7806555112839133 L 10.55412097303989 1.4031385657979905 C 10.773264956029278 1.183534196289716 10.773264956029278 0.8276554171913988 10.55412097303989 0.6085114342020099 Z" fill="#ffffff" transform="matrix(1,0,0,1,0,0)" fill-rule="nonzero"></path></g><g clip-path="url(#SvgjsClipPath115760bc2a0151-cc77-4121-8979-387d861b34dc)"><path d=" M 10.182128665780589 2.795807785425941 C 10.072096287767009 2.795807785425941 9.962063909753429 2.7539126122073814 9.878733949835194 2.6701222657702623 L 8.517831400010326 1.3092197159453942 C 8.436803372686517 1.2281916886215876 8.392145880354647 1.1204612432024335 8.392145880354647 1.0058249999999993 C 8.392145880354647 0.8911887567975667 8.436803372686517 0.7834583113784128 8.517831400010326 0.7024302840546046 L 9.878733949835194 -0.6584722657702621 C 10.046314642709431 -0.8255925721256157 10.318403075370629 -0.8260529586445016 10.485983768244868 -0.6584722657702621 L 11.846886318069735 0.7024302840546046 C 11.927914345393543 0.7834583113784128 11.972571837725415 0.8911887567975667 11.972571837725415 1.0058249999999993 C 11.972571837725415 1.1204612432024335 11.927914345393543 1.2281916886215876 11.846886318069735 1.3092197159453942 L 10.485983768244868 2.6701222657702623 C 10.402193421807748 2.7539126122073814 10.292161043794167 2.795807785425941 10.182128665780589 2.795807785425941 Z M 10.182128665780589 -0.6879370029789198 C 10.096957159786813 -0.6879370029789198 10.01132526727415 -0.6557099466569506 9.946410768111328 -0.5907954474941273 L 8.58550821828646 0.7701071023307395 C 8.522435265199178 0.8331800554180229 8.487906276282784 0.9165100153362578 8.487906276282784 1.005364613481115 C 8.487906276282784 1.0942192116259726 8.522435265199178 1.178009558063093 8.58550821828646 1.2406221246314906 L 9.946410768111328 2.601524674456356 C 10.076239766436975 2.731353672782003 10.287557178605315 2.731353672782003 10.417386176930961 2.601524674456356 L 11.778288726755829 1.2406221246314892 C 11.84136167984311 1.177549171544206 11.875890668759506 1.0942192116259712 11.875890668759506 1.0053646134811136 C 11.875890668759506 0.9165100153362564 11.84136167984311 0.8327196688991358 11.778288726755829 0.7701071023307382 L 10.417386176930961 -0.5907954474941285 C 10.352932064287025 -0.6557099466569506 10.267760558293247 -0.6879370029789198 10.182128665780589 -0.6879370029789198 Z" fill="#090338" transform="matrix(1,0,0,1,0,0)" fill-rule="nonzero"></path></g></g><g><path d=" M 0.4515 0.009000000000000008 Q 0.4515 0.018000000000000016 0.447 0.018000000000000016 Q 0.40800000000000003 0.018000000000000016 0.38925 0.027000000000000024 Q 0.3705 0.03600000000000003 0.3645 0.05774999999999997 Q 0.3585 0.07950000000000002 0.3585 0.12449999999999994 L 0.3585 0.9435 Q 0.3585 1.1115 0.27525 1.206 Q 0.192 1.3005 0.043500000000000004 1.3005 Q -0.0135 1.3005 -0.0495 1.2765 Q -0.0855 1.2525 -0.0855 1.2105000000000001 Q -0.0855 1.1804999999999999 -0.066 1.15725 Q -0.0465 1.134 -0.0075 1.134 Q 0.03 1.134 0.05025 1.1565 Q 0.07050000000000001 1.179 0.08700000000000001 1.2195 Q 0.096 1.2435 0.105 1.25625 Q 0.114 1.2690000000000001 0.1275 1.2690000000000001 Q 0.159 1.2690000000000001 0.17400000000000002 1.218 Q 0.189 1.167 0.189 1.0485 L 0.189 0.12149999999999994 Q 0.189 0.07650000000000001 0.17925 0.055499999999999994 Q 0.1695 0.034499999999999975 0.14400000000000002 0.026249999999999996 Q 0.11850000000000001 0.018000000000000016 0.063 0.018000000000000016 Q 0.06 0.018000000000000016 0.06 0.009000000000000008 Q 0.06 0 0.063 0 L 0.156 0.0014999999999999458 Q 0.228 0.0044999999999999485 0.2715 0.0044999999999999485 Q 0.3135 0.0044999999999999485 0.3765 0.0014999999999999458 L 0.447 0 Q 0.4515 0 0.4515 0.009000000000000008 M 0.73048388671875 0.90525 Q 0.64648388671875 0.855 0.59998388671875 0.77025 Q 0.55348388671875 0.6855 0.55348388671875 0.5865 Q 0.55348388671875 0.4725 0.61273388671875 0.38849999999999996 Q 0.67198388671875 0.3045 0.76423388671875 0.261 Q 0.8564838867187501 0.21750000000000003 0.95398388671875 0.21750000000000003 Q 1.06048388671875 0.21750000000000003 1.14223388671875 0.26925 Q 1.22398388671875 0.32099999999999995 1.26898388671875 0.40425 Q 1.3139838867187499 0.4875 1.3139838867187499 0.579 Q 1.3139838867187499 0.6795 1.2614838867187501 0.7657499999999999 Q 1.20898388671875 0.852 1.11898388671875 0.90375 Q 1.02898388671875 0.9555 0.9209838867187501 0.9555 Q 0.81448388671875 0.9555 0.73048388671875 0.90525 M 1.0912338867187499 0.8385 Q 1.14298388671875 0.756 1.14298388671875 0.6105 Q 1.14298388671875 0.5115000000000001 1.11298388671875 0.4305 Q 1.08298388671875 0.34950000000000003 1.0282338867187502 0.30225 Q 0.9734838867187501 0.255 0.90148388671875 0.255 Q 0.81448388671875 0.255 0.76948388671875 0.32699999999999996 Q 0.72448388671875 0.399 0.72448388671875 0.54 Q 0.72448388671875 0.6465000000000001 0.75523388671875 0.73425 Q 0.7859838867187501 0.822 0.8384838867187501 0.8714999999999999 Q 0.8909838867187501 0.921 0.9554838867187501 0.921 Q 1.0394838867187501 0.921 1.0912338867187499 0.8385 M 2.2080087890625 0.9285 Q 2.2080087890625 0.9375 2.2050087890625 0.9375 Q 2.1675087890625 0.9375 2.1465087890625 0.936 L 2.0685087890625002 0.9345 L 1.9785087890625 0.936 Q 1.9560087890625 0.9375 1.9185087890624999 0.9375 Q 1.9155087890625 0.9375 1.9155087890625 0.9285 Q 1.9155087890625 0.9195 1.9185087890624999 0.9195 Q 1.9530087890624999 0.9195 1.9695087890625 0.9105 Q 1.9860087890625 0.9015 1.9920087890625 0.87975 Q 1.9980087890625 0.858 1.9980087890625 0.813 L 1.9980087890625 0.5145 Q 1.9980087890625 0.37349999999999994 1.9567587890625 0.32025000000000003 Q 1.9155087890625 0.267 1.8435087890625 0.267 Q 1.7835087890625 0.267 1.7317587890625 0.29700000000000004 Q 1.6800087890625 0.32699999999999996 1.6350087890625 0.39449999999999996 L 1.6350087890625 0.813 Q 1.6350087890625 0.858 1.6402587890625 0.87975 Q 1.6455087890625 0.9015 1.6612587890625 0.9105 Q 1.6770087890625 0.9195 1.7100087890625 0.9195 Q 1.7130087890625 0.9195 1.7130087890625 0.9285 Q 1.7130087890625 0.9375 1.7100087890625 0.9375 Q 1.6665087890625 0.9375 1.6410087890625 0.936 L 1.5540087890625 0.9345 L 1.4715087890625 0.936 Q 1.4475087890625 0.9375 1.4040087890625 0.9375 Q 1.4010087890625 0.9375 1.4010087890625 0.9285 Q 1.4010087890625 0.9195 1.4040087890625 0.9195 Q 1.4385087890625 0.9195 1.4557587890625001 0.912 Q 1.4730087890625 0.9045 1.4790087890625 0.88275 Q 1.4850087890625 0.861 1.4850087890625 0.8160000000000001 L 1.4850087890625 0.357 Q 1.4850087890625 0.31199999999999994 1.4790087890625 0.29100000000000004 Q 1.4730087890625 0.27 1.4572587890625 0.26175000000000004 Q 1.4415087890625 0.25349999999999995 1.4085087890625 0.25349999999999995 Q 1.4040087890625 0.25349999999999995 1.4040087890625 0.24449999999999994 Q 1.4040087890625 0.23549999999999993 1.4085087890625 0.23549999999999993 L 1.5060087890625 0.237 L 1.6065087890625 0.23549999999999993 Q 1.6245087890625 0.23549999999999993 1.6297587890625 0.24075000000000002 Q 1.6350087890625 0.246 1.6350087890625 0.264 L 1.6350087890625 0.34650000000000003 Q 1.6920087890625 0.28049999999999997 1.7580087890625 0.249 Q 1.8240087890625 0.21750000000000003 1.9035087890625 0.21750000000000003 Q 2.0085087890624997 0.21750000000000003 2.0775087890625 0.27674999999999994 Q 2.1465087890625 0.33599999999999997 2.1465087890625 0.48 L 2.1465087890625 0.8160000000000001 Q 2.1465087890625 0.861 2.1510087890625 0.88275 Q 2.1555087890625 0.9045 2.1675087890625 0.912 Q 2.1795087890625 0.9195 2.2050087890625 0.9195 Q 2.2080087890625 0.9195 2.2080087890625 0.9285 M 2.97153515625 0.849 Q 2.97603515625 0.849 2.97828515625 0.8565 Q 2.98053515625 0.864 2.97453515625 0.8654999999999999 L 2.80953515625 0.945 Q 2.80353515625 0.948 2.79603515625 0.948 Q 2.76753515625 0.948 2.73978515625 0.924 Q 2.71203515625 0.9 2.69703515625 0.8475 L 2.60703515625 0.9 Q 2.56203515625 0.927 2.52678515625 0.9375 Q 2.49153515625 0.948 2.45403515625 0.948 Q 2.39553515625 0.948 2.35803515625 0.9165 Q 2.32053515625 0.885 2.32053515625 0.8355 Q 2.32053515625 0.789 2.35128515625 0.75375 Q 2.38203515625 0.7185 2.43753515625 0.699 L 2.68653515625 0.6105 L 2.68653515625 0.43199999999999994 Q 2.68653515625 0.3405 2.66778515625 0.2985 Q 2.64903515625 0.25649999999999995 2.60703515625 0.25649999999999995 Q 2.55903515625 0.25649999999999995 2.53203515625 0.29999999999999993 Q 2.50503515625 0.3435 2.49003515625 0.41100000000000003 Q 2.47353515625 0.495 2.40303515625 0.495 Q 2.36553515625 0.495 2.34378515625 0.47625 Q 2.32203515625 0.4575 2.32203515625 0.42300000000000004 Q 2.32203515625 0.378 2.37828515625 0.33075 Q 2.43453515625 0.2835 2.51553515625 0.25275000000000003 Q 2.59653515625 0.22199999999999998 2.66403515625 0.22199999999999998 Q 2.74353515625 0.22199999999999998 2.79003515625 0.26325 Q 2.83653515625 0.3045 2.83653515625 0.387 L 2.83653515625 0.7065 Q 2.83653515625 0.774 2.84853515625 0.8069999999999999 Q 2.86053515625 0.84 2.87928515625 0.849 Q 2.8980351562499997 0.858 2.92803515625 0.858 Q 2.94303515625 0.858 2.9685351562499998 0.8505 L 2.97153515625 0.849 M 2.69103515625 0.8175 Q 2.68653515625 0.7905 2.68653515625 0.7575000000000001 L 2.68653515625 0.642 L 2.55753515625 0.69 Q 2.48553515625 0.717 2.48553515625 0.786 Q 2.48553515625 0.8265 2.50503515625 0.84975 Q 2.52453515625 0.873 2.55753515625 0.873 Q 2.58153515625 0.873 2.62353515625 0.852 L 2.69103515625 0.8175 M 3.511562255859375 0.8505 Q 3.517562255859375 0.8505 3.519812255859375 0.8565 Q 3.522062255859375 0.8625 3.517562255859375 0.8654999999999999 Q 3.4560622558593748 0.915 3.407312255859375 0.93525 Q 3.358562255859375 0.9555 3.298562255859375 0.9555 Q 3.208562255859375 0.9555 3.147062255859375 0.9075 Q 3.085562255859375 0.8595 3.085562255859375 0.7484999999999999 L 3.085562255859375 0.35550000000000004 Q 3.085562255859375 0.31499999999999995 3.068312255859375 0.3015 Q 3.051062255859375 0.28800000000000003 3.004562255859375 0.28800000000000003 Q 3.000062255859375 0.28800000000000003 3.000062255859375 0.27449999999999997 Q 3.000062255859375 0.261 3.004562255859375 0.261 Q 3.081062255859375 0.261 3.138062255859375 0.22799999999999998 Q 3.195062255859375 0.19499999999999995 3.211562255859375 0.14100000000000001 Q 3.214562255859375 0.13649999999999995 3.220562255859375 0.13649999999999995 Q 3.226562255859375 0.13649999999999995 3.231062255859375 0.13874999999999993 Q 3.235562255859375 0.14100000000000001 3.235562255859375 0.14400000000000002 L 3.235562255859375 0.25349999999999995 Q 3.3390622558593748 0.252 3.477062255859375 0.24 Q 3.481562255859375 0.24 3.484562255859375 0.25049999999999994 Q 3.487562255859375 0.261 3.487562255859375 0.276 Q 3.487562255859375 0.29100000000000004 3.482312255859375 0.30525 Q 3.477062255859375 0.3195 3.472562255859375 0.31799999999999995 Q 3.402062255859375 0.29999999999999993 3.235562255859375 0.29400000000000004 L 3.235562255859375 0.714 Q 3.235562255859375 0.8925 3.367562255859375 0.8925 Q 3.448562255859375 0.8925 3.508562255859375 0.852 L 3.511562255859375 0.8505 M 4.446069580078125 0.9285 Q 4.446069580078125 0.9375 4.441569580078125 0.9375 Q 4.395069580078125 0.9375 4.369569580078125 0.936 L 4.270569580078125 0.9345 L 4.170069580078125 0.936 Q 4.144569580078125 0.9375 4.098069580078125 0.9375 Q 4.093569580078125 0.9375 4.093569580078125 0.9285 Q 4.093569580078125 0.9195 4.098069580078125 0.9195 Q 4.140069580078125 0.9195 4.159569580078125 0.912 Q 4.179069580078125 0.9045 4.186569580078125 0.88275 Q 4.194069580078125 0.861 4.194069580078125 0.8160000000000001 L 4.194069580078125 0.603 L 3.832569580078125 0.603 L 3.832569580078125 0.8160000000000001 Q 3.832569580078125 0.861 3.840069580078125 0.882 Q 3.847569580078125 0.903 3.867819580078125 0.91125 Q 3.888069580078125 0.9195 3.930069580078125 0.9195 Q 3.933069580078125 0.9195 3.933069580078125 0.9285 Q 3.933069580078125 0.9375 3.930069580078125 0.9375 Q 3.883569580078125 0.9375 3.858069580078125 0.936 L 3.757569580078125 0.9345 L 3.660069580078125 0.936 Q 3.633069580078125 0.9375 3.585069580078125 0.9375 Q 3.582069580078125 0.9375 3.582069580078125 0.9285 Q 3.582069580078125 0.9195 3.585069580078125 0.9195 Q 3.628569580078125 0.9195 3.648819580078125 0.912 Q 3.669069580078125 0.9045 3.676569580078125 0.88275 Q 3.684069580078125 0.861 3.684069580078125 0.8160000000000001 L 3.684069580078125 0.357 Q 3.684069580078125 0.31199999999999994 3.676569580078125 0.29100000000000004 Q 3.669069580078125 0.27 3.648819580078125 0.26175000000000004 Q 3.628569580078125 0.25349999999999995 3.588069580078125 0.25349999999999995 Q 3.583569580078125 0.25349999999999995 3.583569580078125 0.24449999999999994 Q 3.583569580078125 0.23549999999999993 3.588069580078125 0.23549999999999993 L 3.660069580078125 0.237 Q 3.720069580078125 0.24 3.757569580078125 0.24 Q 3.798069580078125 0.24 3.858069580078125 0.237 L 3.930069580078125 0.23549999999999993 Q 3.933069580078125 0.23549999999999993 3.933069580078125 0.24449999999999994 Q 3.933069580078125 0.25349999999999995 3.930069580078125 0.25349999999999995 Q 3.870069580078125 0.25349999999999995 3.8513195800781252 0.27449999999999997 Q 3.832569580078125 0.2955 3.832569580078125 0.36 L 3.832569580078125 0.5640000000000001 L 4.194069580078125 0.5640000000000001 L 4.194069580078125 0.36 Q 4.194069580078125 0.31499999999999995 4.186569580078125 0.29325 Q 4.179069580078125 0.27149999999999996 4.159569580078125 0.26249999999999996 Q 4.140069580078125 0.25349999999999995 4.098069580078125 0.25349999999999995 Q 4.093569580078125 0.25349999999999995 4.093569580078125 0.24449999999999994 Q 4.093569580078125 0.23549999999999993 4.098069580078125 0.23549999999999993 L 4.170069580078125 0.237 Q 4.230069580078125 0.24 4.270569580078125 0.24 Q 4.306569580078125 0.24 4.369569580078125 0.237 L 4.441569580078125 0.23549999999999993 Q 4.446069580078125 0.23549999999999993 4.446069580078125 0.24449999999999994 Q 4.446069580078125 0.25349999999999995 4.441569580078125 0.25349999999999995 Q 4.399569580078125 0.25349999999999995 4.379319580078125 0.26175000000000004 Q 4.359069580078125 0.27 4.351569580078125 0.29100000000000004 Q 4.344069580078125 0.31199999999999994 4.344069580078125 0.357 L 4.344069580078125 0.8160000000000001 Q 4.344069580078125 0.861 4.351569580078125 0.88275 Q 4.359069580078125 0.9045 4.378569580078125 0.912 Q 4.398069580078125 0.9195 4.441569580078125 0.9195 Q 4.446069580078125 0.9195 4.446069580078125 0.9285 M 5.21109814453125 0.849 Q 5.21559814453125 0.849 5.21784814453125 0.8565 Q 5.22009814453125 0.864 5.21409814453125 0.8654999999999999 L 5.04909814453125 0.945 Q 5.04309814453125 0.948 5.03559814453125 0.948 Q 5.00709814453125 0.948 4.97934814453125 0.924 Q 4.95159814453125 0.9 4.93659814453125 0.8475 L 4.84659814453125 0.9 Q 4.80159814453125 0.927 4.76634814453125 0.9375 Q 4.73109814453125 0.948 4.69359814453125 0.948 Q 4.63509814453125 0.948 4.59759814453125 0.9165 Q 4.56009814453125 0.885 4.56009814453125 0.8355 Q 4.56009814453125 0.789 4.59084814453125 0.75375 Q 4.62159814453125 0.7185 4.67709814453125 0.699 L 4.92609814453125 0.6105 L 4.92609814453125 0.43199999999999994 Q 4.92609814453125 0.3405 4.90734814453125 0.2985 Q 4.88859814453125 0.25649999999999995 4.84659814453125 0.25649999999999995 Q 4.79859814453125 0.25649999999999995 4.77159814453125 0.29999999999999993 Q 4.74459814453125 0.3435 4.72959814453125 0.41100000000000003 Q 4.71309814453125 0.495 4.64259814453125 0.495 Q 4.60509814453125 0.495 4.58334814453125 0.47625 Q 4.56159814453125 0.4575 4.56159814453125 0.42300000000000004 Q 4.56159814453125 0.378 4.61784814453125 0.33075 Q 4.67409814453125 0.2835 4.75509814453125 0.25275000000000003 Q 4.83609814453125 0.22199999999999998 4.90359814453125 0.22199999999999998 Q 4.98309814453125 0.22199999999999998 5.02959814453125 0.26325 Q 5.07609814453125 0.3045 5.07609814453125 0.387 L 5.07609814453125 0.7065 Q 5.07609814453125 0.774 5.08809814453125 0.8069999999999999 Q 5.10009814453125 0.84 5.11884814453125 0.849 Q 5.13759814453125 0.858 5.16759814453125 0.858 Q 5.18259814453125 0.858 5.20809814453125 0.8505 L 5.21109814453125 0.849 M 4.93059814453125 0.8175 Q 4.92609814453125 0.7905 4.92609814453125 0.7575000000000001 L 4.92609814453125 0.642 L 4.79709814453125 0.69 Q 4.72509814453125 0.717 4.72509814453125 0.786 Q 4.72509814453125 0.8265 4.74459814453125 0.84975 Q 4.76409814453125 0.873 4.79709814453125 0.873 Q 4.82109814453125 0.873 4.86309814453125 0.852 L 4.93059814453125 0.8175 M 6.058625244140625 0.9285 Q 6.058625244140625 0.9375 6.055625244140625 0.9375 Q 6.018125244140625 0.9375 5.997125244140625 0.936 L 5.919125244140625 0.9345 L 5.829125244140625 0.936 Q 5.8066252441406245 0.9375 5.769125244140625 0.9375 Q 5.766125244140625 0.9375 5.766125244140625 0.9285 Q 5.766125244140625 0.9195 5.769125244140625 0.9195 Q 5.803625244140625 0.9195 5.820125244140625 0.9105 Q 5.836625244140625 0.9015 5.842625244140625 0.87975 Q 5.848625244140625 0.858 5.848625244140625 0.813 L 5.848625244140625 0.5145 Q 5.848625244140625 0.37349999999999994 5.807375244140625 0.32025000000000003 Q 5.766125244140625 0.267 5.694125244140625 0.267 Q 5.634125244140625 0.267 5.582375244140625 0.29700000000000004 Q 5.530625244140625 0.32699999999999996 5.485625244140625 0.39449999999999996 L 5.485625244140625 0.813 Q 5.485625244140625 0.858 5.490875244140625 0.87975 Q 5.496125244140625 0.9015 5.511875244140625 0.9105 Q 5.527625244140625 0.9195 5.560625244140625 0.9195 Q 5.563625244140625 0.9195 5.563625244140625 0.9285 Q 5.563625244140625 0.9375 5.560625244140625 0.9375 Q 5.517125244140625 0.9375 5.491625244140625 0.936 L 5.404625244140625 0.9345 L 5.322125244140625 0.936 Q 5.298125244140625 0.9375 5.254625244140625 0.9375 Q 5.251625244140625 0.9375 5.251625244140625 0.9285 Q 5.251625244140625 0.9195 5.254625244140625 0.9195 Q 5.289125244140625 0.9195 5.306375244140625 0.912 Q 5.323625244140625 0.9045 5.329625244140625 0.88275 Q 5.335625244140625 0.861 5.335625244140625 0.8160000000000001 L 5.335625244140625 0.357 Q 5.335625244140625 0.31199999999999994 5.329625244140625 0.29100000000000004 Q 5.323625244140625 0.27 5.307875244140625 0.26175000000000004 Q 5.292125244140625 0.25349999999999995 5.259125244140625 0.25349999999999995 Q 5.254625244140625 0.25349999999999995 5.254625244140625 0.24449999999999994 Q 5.254625244140625 0.23549999999999993 5.259125244140625 0.23549999999999993 L 5.356625244140625 0.237 L 5.457125244140625 0.23549999999999993 Q 5.475125244140625 0.23549999999999993 5.480375244140625 0.24075000000000002 Q 5.485625244140625 0.246 5.485625244140625 0.264 L 5.485625244140625 0.34650000000000003 Q 5.542625244140625 0.28049999999999997 5.608625244140625 0.249 Q 5.674625244140625 0.21750000000000003 5.754125244140625 0.21750000000000003 Q 5.859125244140625 0.21750000000000003 5.928125244140625 0.27674999999999994 Q 5.997125244140625 0.33599999999999997 5.997125244140625 0.48 L 5.997125244140625 0.8160000000000001 Q 5.997125244140625 0.861 6.001625244140625 0.88275 Q 6.006125244140625 0.9045 6.018125244140625 0.912 Q 6.030125244140625 0.9195 6.055625244140625 0.9195 Q 6.058625244140625 0.9195 6.058625244140625 0.9285" fill="#090338" fill-rule="nonzero"></path></g><g><path d=" M 2.9190831298828126 2.0123999999999995 Q 2.9100831298828127 2.0116499999999995 2.8965831298828126 2.0108999999999995 Q 2.883083129882813 2.0101499999999994 2.865833129882813 2.0101499999999994 L 2.821583129882813 2.0108999999999995 Q 2.808833129882813 2.0116499999999995 2.787083129882813 2.0116499999999995 Q 2.785583129882813 2.0116499999999995 2.785583129882813 2.0071499999999993 Q 2.785583129882813 2.0026499999999996 2.787083129882813 2.0026499999999996 Q 2.812583129882813 2.0026499999999996 2.824208129882813 1.9988999999999995 Q 2.835833129882813 1.9951499999999995 2.8399581298828127 1.9842749999999996 Q 2.844083129882813 1.9733999999999996 2.844083129882813 1.9508999999999994 L 2.844083129882813 1.7213999999999996 Q 2.844083129882813 1.6988999999999994 2.8399581298828127 1.6883999999999995 Q 2.835833129882813 1.6778999999999995 2.824208129882813 1.6737749999999996 Q 2.812583129882813 1.6696499999999994 2.787833129882813 1.6696499999999994 Q 2.786333129882813 1.6696499999999994 2.786333129882813 1.6651499999999995 Q 2.786333129882813 1.6606499999999995 2.787833129882813 1.6606499999999995 L 2.821583129882813 1.6613999999999995 Q 2.8500831298828126 1.6628999999999996 2.865833129882813 1.6628999999999996 Q 2.889083129882813 1.6628999999999996 2.912333129882813 1.6606499999999995 Q 2.9423331298828126 1.6591499999999995 2.9573331298828127 1.6591499999999995 Q 3.020333129882813 1.6591499999999995 3.066083129882813 1.6816499999999994 Q 3.111833129882813 1.7041499999999994 3.135833129882813 1.7438999999999996 Q 3.159833129882813 1.7836499999999995 3.159833129882813 1.8338999999999994 Q 3.159833129882813 1.8856499999999996 3.135083129882813 1.9268999999999994 Q 3.1103331298828127 1.9681499999999994 3.066458129882813 1.9913999999999994 Q 3.022583129882813 2.0146499999999996 2.9663331298828126 2.0146499999999996 Q 2.9445831298828127 2.0146499999999996 2.9190831298828126 2.0123999999999995 M 3.066458129882813 1.9621499999999994 Q 3.105833129882813 1.9201499999999996 3.105833129882813 1.8421499999999995 Q 3.105833129882813 1.7671499999999996 3.067208129882813 1.7183999999999995 Q 3.0285831298828128 1.6696499999999994 2.951333129882813 1.6696499999999994 Q 2.916833129882813 1.6696499999999994 2.902958129882813 1.6808999999999994 Q 2.889083129882813 1.6921499999999994 2.889083129882813 1.7228999999999994 L 2.889083129882813 1.9426499999999995 Q 2.889083129882813 1.9763999999999995 2.902958129882813 1.9902749999999996 Q 2.916833129882813 2.0041499999999997 2.9573331298828127 2.0041499999999997 Q 3.0270831298828127 2.0041499999999997 3.066458129882813 1.9621499999999994 M 3.494703002929688 1.9711499999999995 Q 3.496953002929688 1.9711499999999995 3.498828002929688 1.9737749999999994 Q 3.5007030029296877 1.9763999999999995 3.499203002929688 1.9786499999999996 Q 3.445953002929688 2.0206499999999994 3.3829530029296877 2.0206499999999994 Q 3.329703002929688 2.0206499999999994 3.291828002929688 1.9955249999999995 Q 3.2539530029296877 1.9703999999999995 3.234828002929688 1.9298999999999995 Q 3.215703002929688 1.8893999999999995 3.215703002929688 1.8428999999999995 Q 3.215703002929688 1.7911499999999996 3.240453002929688 1.7472749999999995 Q 3.2652030029296877 1.7033999999999994 3.306453002929688 1.6778999999999995 Q 3.3477030029296877 1.6523999999999994 3.3964530029296878 1.6523999999999994 Q 3.446703002929688 1.6523999999999994 3.472203002929688 1.6801499999999994 Q 3.497703002929688 1.7078999999999995 3.497703002929688 1.7551499999999995 Q 3.497703002929688 1.7626499999999994 3.495828002929688 1.7660249999999995 Q 3.493953002929688 1.7693999999999994 3.4887030029296877 1.7693999999999994 L 3.270453002929688 1.7701499999999994 Q 3.2659530029296877 1.7911499999999996 3.2659530029296877 1.8166499999999994 Q 3.2659530029296877 1.8676499999999994 3.283203002929688 1.9085249999999996 Q 3.3004530029296877 1.9493999999999996 3.333078002929688 1.9726499999999996 Q 3.365703002929688 1.9958999999999996 3.409953002929688 1.9958999999999996 Q 3.460203002929688 1.9958999999999996 3.493953002929688 1.9711499999999995 L 3.494703002929688 1.9711499999999995 M 3.310578002929688 1.6917749999999994 Q 3.283953002929688 1.7161499999999994 3.272703002929688 1.7588999999999995 L 3.445203002929688 1.7558999999999996 Q 3.445953002929688 1.7131499999999995 3.427578002929688 1.6902749999999995 Q 3.409203002929688 1.6673999999999995 3.3732030029296878 1.6673999999999995 Q 3.3372030029296877 1.6673999999999995 3.310578002929688 1.6917749999999994 M 3.9075974121093755 1.6651499999999995 Q 3.9075974121093755 1.6696499999999994 3.9060974121093754 1.6696499999999994 Q 3.8843474121093755 1.6696499999999994 3.8689724121093754 1.6820249999999994 Q 3.8535974121093757 1.6943999999999995 3.841597412109375 1.7243999999999995 L 3.7283474121093754 2.0108999999999995 Q 3.7275974121093753 2.0138999999999996 3.7200974121093755 2.0138999999999996 Q 3.7125974121093757 2.0138999999999996 3.7118474121093756 2.0108999999999995 L 3.5753474121093753 1.7228999999999994 Q 3.5603474121093757 1.6913999999999996 3.5490974121093757 1.6805249999999994 Q 3.5378474121093753 1.6696499999999994 3.5183474121093754 1.6696499999999994 Q 3.5160974121093753 1.6696499999999994 3.5160974121093753 1.6651499999999995 Q 3.5160974121093753 1.6606499999999995 3.5183474121093754 1.6606499999999995 L 3.5468474121093756 1.6613999999999995 Q 3.5678474121093755 1.6628999999999996 3.5798474121093755 1.6628999999999996 Q 3.5985974121093753 1.6628999999999996 3.6255974121093755 1.6613999999999995 L 3.6555974121093753 1.6606499999999995 Q 3.6570974121093753 1.6606499999999995 3.6570974121093753 1.6651499999999995 Q 3.6570974121093753 1.6696499999999994 3.6555974121093753 1.6696499999999994 Q 3.6165974121093756 1.6696499999999994 3.6165974121093756 1.6928999999999994 Q 3.6165974121093756 1.7011499999999995 3.6225974121093754 1.7153999999999994 L 3.7373474121093753 1.9523999999999995 L 3.8258474121093755 1.7198999999999995 Q 3.8310974121093757 1.7041499999999994 3.8310974121093757 1.6973999999999996 Q 3.8310974121093757 1.6696499999999994 3.7808474121093756 1.6696499999999994 Q 3.7785974121093755 1.6696499999999994 3.7785974121093755 1.6651499999999995 Q 3.7785974121093755 1.6606499999999995 3.7808474121093756 1.6606499999999995 L 3.8078474121093757 1.6613999999999995 Q 3.8303474121093757 1.6628999999999996 3.8483474121093755 1.6628999999999996 Q 3.8603474121093755 1.6628999999999996 3.8783474121093753 1.6613999999999995 L 3.9060974121093754 1.6606499999999995 Q 3.9075974121093755 1.6606499999999995 3.9075974121093755 1.6651499999999995 M 4.210962158203126 1.9711499999999995 Q 4.213212158203126 1.9711499999999995 4.215087158203126 1.9737749999999994 Q 4.216962158203126 1.9763999999999995 4.215462158203126 1.9786499999999996 Q 4.1622121582031255 2.0206499999999994 4.099212158203126 2.0206499999999994 Q 4.0459621582031255 2.0206499999999994 4.008087158203126 1.9955249999999995 Q 3.9702121582031253 1.9703999999999995 3.9510871582031255 1.9298999999999995 Q 3.9319621582031257 1.8893999999999995 3.9319621582031257 1.8428999999999995 Q 3.9319621582031257 1.7911499999999996 3.9567121582031257 1.7472749999999995 Q 3.9814621582031253 1.7033999999999994 4.0227121582031256 1.6778999999999995 Q 4.063962158203125 1.6523999999999994 4.112712158203125 1.6523999999999994 Q 4.1629621582031255 1.6523999999999994 4.188462158203126 1.6801499999999994 Q 4.213962158203126 1.7078999999999995 4.213962158203126 1.7551499999999995 Q 4.213962158203126 1.7626499999999994 4.212087158203126 1.7660249999999995 Q 4.2102121582031256 1.7693999999999994 4.204962158203125 1.7693999999999994 L 3.9867121582031255 1.7701499999999994 Q 3.9822121582031254 1.7911499999999996 3.9822121582031254 1.8166499999999994 Q 3.9822121582031254 1.8676499999999994 3.9994621582031256 1.9085249999999996 Q 4.016712158203125 1.9493999999999996 4.049337158203126 1.9726499999999996 Q 4.081962158203125 1.9958999999999996 4.126212158203126 1.9958999999999996 Q 4.176462158203125 1.9958999999999996 4.2102121582031256 1.9711499999999995 L 4.210962158203126 1.9711499999999995 M 4.026837158203126 1.6917749999999994 Q 4.000212158203126 1.7161499999999994 3.9889621582031256 1.7588999999999995 L 4.1614621582031255 1.7558999999999996 Q 4.1622121582031255 1.7131499999999995 4.143837158203126 1.6902749999999995 Q 4.125462158203126 1.6673999999999995 4.089462158203125 1.6673999999999995 Q 4.053462158203126 1.6673999999999995 4.026837158203126 1.6917749999999994 M 4.3636065673828135 1.9478999999999995 Q 4.3636065673828135 1.9696499999999995 4.367731567382813 1.9801499999999994 Q 4.371856567382813 1.9906499999999996 4.383481567382813 1.9951499999999995 Q 4.395106567382813 1.9996499999999995 4.418356567382813 1.9996499999999995 L 4.467856567382813 1.9996499999999995 Q 4.507606567382813 1.9996499999999995 4.531231567382813 1.9748999999999994 Q 4.554856567382813 1.9501499999999994 4.563106567382813 1.9066499999999995 Q 4.563106567382813 1.9051499999999995 4.566106567382813 1.9051499999999995 Q 4.568356567382813 1.9051499999999995 4.570231567382813 1.9058999999999995 Q 4.572106567382813 1.9066499999999995 4.572106567382813 1.9081499999999996 Q 4.566856567382813 1.9426499999999995 4.566856567382813 2.0003999999999995 Q 4.566856567382813 2.0063999999999993 4.564231567382813 2.0090249999999994 Q 4.561606567382813 2.0116499999999995 4.555606567382813 2.0116499999999995 L 4.262356567382813 2.0116499999999995 Q 4.260856567382813 2.0116499999999995 4.260856567382813 2.0071499999999993 Q 4.260856567382813 2.0026499999999996 4.262356567382813 2.0026499999999996 Q 4.287106567382813 2.0026499999999996 4.298356567382813 1.9988999999999995 Q 4.309606567382813 1.9951499999999995 4.313356567382813 1.9842749999999996 Q 4.3171065673828135 1.9733999999999996 4.3171065673828135 1.9508999999999994 L 4.3171065673828135 1.7213999999999996 Q 4.3171065673828135 1.6988999999999994 4.312981567382813 1.6883999999999995 Q 4.308856567382813 1.6778999999999995 4.297606567382813 1.6737749999999996 Q 4.286356567382813 1.6696499999999994 4.262356567382813 1.6696499999999994 Q 4.260856567382813 1.6696499999999994 4.260856567382813 1.6651499999999995 Q 4.260856567382813 1.6606499999999995 4.262356567382813 1.6606499999999995 L 4.296106567382813 1.6613999999999995 Q 4.324606567382813 1.6628999999999996 4.3403565673828135 1.6628999999999996 Q 4.359106567382813 1.6628999999999996 4.3876065673828135 1.6613999999999995 L 4.419106567382813 1.6606499999999995 Q 4.421356567382813 1.6606499999999995 4.421356567382813 1.6651499999999995 Q 4.421356567382813 1.6696499999999994 4.419106567382813 1.6696499999999994 Q 4.394356567382813 1.6696499999999994 4.383106567382813 1.6737749999999996 Q 4.371856567382813 1.6778999999999995 4.367731567382813 1.6887749999999995 Q 4.3636065673828135 1.6996499999999994 4.3636065673828135 1.7221499999999996 L 4.3636065673828135 1.9478999999999995 M 4.698116088867188 1.9958999999999996 Q 4.657241088867188 1.9711499999999995 4.634741088867188 1.9291499999999995 Q 4.612241088867188 1.8871499999999994 4.612241088867188 1.8383999999999996 Q 4.612241088867188 1.7798999999999996 4.642616088867189 1.7375249999999995 Q 4.672991088867188 1.6951499999999995 4.719866088867188 1.6733999999999996 Q 4.766741088867188 1.6516499999999996 4.815491088867188 1.6516499999999996 Q 4.867991088867188 1.6516499999999996 4.908116088867188 1.6775249999999995 Q 4.948241088867189 1.7033999999999994 4.9696160888671885 1.7446499999999996 Q 4.9909910888671885 1.7858999999999994 4.9909910888671885 1.8308999999999995 Q 4.9909910888671885 1.8811499999999994 4.963991088867188 1.9250249999999995 Q 4.936991088867188 1.9688999999999994 4.891241088867188 1.9947749999999995 Q 4.845491088867188 2.0206499999999994 4.791491088867188 2.0206499999999994 Q 4.738991088867188 2.0206499999999994 4.698116088867188 1.9958999999999996 M 4.904366088867188 1.9636499999999995 Q 4.939241088867188 1.9223999999999994 4.939241088867188 1.8496499999999996 Q 4.939241088867188 1.7993999999999994 4.9216160888671885 1.7581499999999994 Q 4.903991088867188 1.7168999999999994 4.870241088867188 1.6921499999999994 Q 4.836491088867188 1.6673999999999995 4.789991088867188 1.6673999999999995 Q 4.729991088867188 1.6673999999999995 4.696991088867188 1.7075249999999995 Q 4.6639910888671885 1.7476499999999995 4.6639910888671885 1.8196499999999995 Q 4.6639910888671885 1.8713999999999995 4.681616088867188 1.9133999999999995 Q 4.699241088867188 1.9553999999999996 4.732616088867188 1.9801499999999994 Q 4.765991088867188 2.0048999999999997 4.810991088867188 2.0048999999999997 Q 4.869491088867188 2.0048999999999997 4.904366088867188 1.9636499999999995 M 5.152635864257813 1.9827749999999995 Q 5.157885864257813 1.9936499999999995 5.173260864257813 1.9981499999999994 Q 5.188635864257813 2.0026499999999996 5.221635864257813 2.0026499999999996 Q 5.223885864257813 2.0026499999999996 5.223885864257813 2.0071499999999993 Q 5.223885864257813 2.0116499999999995 5.221635864257813 2.0116499999999995 Q 5.194635864257814 2.0116499999999995 5.180385864257813 2.0108999999999995 L 5.124885864257814 2.0101499999999994 L 5.080635864257813 2.0108999999999995 Q 5.067885864257813 2.0116499999999995 5.046135864257813 2.0116499999999995 Q 5.044635864257813 2.0116499999999995 5.044635864257813 2.0071499999999993 Q 5.044635864257813 2.0026499999999996 5.046135864257813 2.0026499999999996 Q 5.070885864257813 2.0026499999999996 5.082135864257813 1.9988999999999995 Q 5.093385864257813 1.9951499999999995 5.0975108642578135 1.9842749999999996 Q 5.101635864257814 1.9733999999999996 5.101635864257814 1.9508999999999994 L 5.101635864257814 1.7213999999999996 Q 5.101635864257814 1.6988999999999994 5.0975108642578135 1.6883999999999995 Q 5.093385864257813 1.6778999999999995 5.081760864257813 1.6737749999999996 Q 5.070135864257813 1.6696499999999994 5.046135864257813 1.6696499999999994 Q 5.044635864257813 1.6696499999999994 5.044635864257813 1.6651499999999995 Q 5.044635864257813 1.6606499999999995 5.046135864257813 1.6606499999999995 L 5.079885864257813 1.6613999999999995 Q 5.108385864257813 1.6628999999999996 5.124135864257814 1.6628999999999996 Q 5.136885864257813 1.6628999999999996 5.148510864257814 1.6621499999999996 Q 5.160135864257813 1.6613999999999995 5.1683858642578135 1.6606499999999995 Q 5.1916358642578135 1.6583999999999994 5.211885864257813 1.6583999999999994 Q 5.335635864257814 1.6583999999999994 5.335635864257814 1.7498999999999996 Q 5.335635864257814 1.7858999999999994 5.317260864257813 1.8102749999999994 Q 5.298885864257813 1.8346499999999994 5.270760864257813 1.8466499999999995 Q 5.242635864257814 1.8586499999999995 5.2126358642578134 1.8586499999999995 Q 5.192385864257814 1.8586499999999995 5.179635864257813 1.8556499999999996 Q 5.178135864257813 1.8556499999999996 5.178135864257813 1.8518999999999994 Q 5.178135864257813 1.8458999999999994 5.181885864257813 1.8458999999999994 Q 5.193135864257814 1.8481499999999995 5.205135864257813 1.8481499999999995 Q 5.2381358642578135 1.8481499999999995 5.2610108642578135 1.8267749999999996 Q 5.2838858642578135 1.8053999999999994 5.2838858642578135 1.7648999999999995 Q 5.2838858642578135 1.7176499999999995 5.2595108642578134 1.6932749999999994 Q 5.235135864257813 1.6688999999999994 5.193885864257814 1.6688999999999994 Q 5.175135864257813 1.6688999999999994 5.1657608642578134 1.6718999999999995 Q 5.156385864257813 1.6748999999999996 5.151885864257813 1.6861499999999996 Q 5.147385864257814 1.6973999999999996 5.147385864257814 1.7228999999999994 L 5.147385864257814 1.9478999999999995 Q 5.147385864257814 1.9718999999999995 5.152635864257813 1.9827749999999995 M 5.674242187500001 1.9711499999999995 Q 5.676492187500001 1.9711499999999995 5.678367187500001 1.9737749999999994 Q 5.680242187500001 1.9763999999999995 5.678742187500001 1.9786499999999996 Q 5.625492187500001 2.0206499999999994 5.562492187500001 2.0206499999999994 Q 5.509242187500001 2.0206499999999994 5.471367187500001 1.9955249999999995 Q 5.433492187500001 1.9703999999999995 5.414367187500001 1.9298999999999995 Q 5.395242187500001 1.8893999999999995 5.395242187500001 1.8428999999999995 Q 5.395242187500001 1.7911499999999996 5.419992187500001 1.7472749999999995 Q 5.444742187500001 1.7033999999999994 5.485992187500001 1.6778999999999995 Q 5.527242187500001 1.6523999999999994 5.575992187500001 1.6523999999999994 Q 5.626242187500001 1.6523999999999994 5.651742187500001 1.6801499999999994 Q 5.677242187500001 1.7078999999999995 5.677242187500001 1.7551499999999995 Q 5.677242187500001 1.7626499999999994 5.675367187500001 1.7660249999999995 Q 5.673492187500001 1.7693999999999994 5.668242187500001 1.7693999999999994 L 5.449992187500001 1.7701499999999994 Q 5.445492187500001 1.7911499999999996 5.445492187500001 1.8166499999999994 Q 5.445492187500001 1.8676499999999994 5.462742187500001 1.9085249999999996 Q 5.479992187500001 1.9493999999999996 5.512617187500001 1.9726499999999996 Q 5.5452421875 1.9958999999999996 5.589492187500001 1.9958999999999996 Q 5.6397421875000004 1.9958999999999996 5.673492187500001 1.9711499999999995 L 5.674242187500001 1.9711499999999995 M 5.490117187500001 1.6917749999999994 Q 5.463492187500001 1.7161499999999994 5.4522421875000004 1.7588999999999995 L 5.624742187500001 1.7558999999999996 Q 5.625492187500001 1.7131499999999995 5.607117187500001 1.6902749999999995 Q 5.588742187500001 1.6673999999999995 5.552742187500001 1.6673999999999995 Q 5.516742187500001 1.6673999999999995 5.490117187500001 1.6917749999999994 M 6.108136596679689 2.0071499999999993 Q 6.108136596679689 2.0116499999999995 6.106636596679689 2.0116499999999995 L 6.018886596679688 2.0116499999999995 Q 6.005386596679688 2.0116499999999995 5.971261596679688 1.9666499999999996 Q 5.9371365966796885 1.9216499999999994 5.8891365966796885 1.8421499999999995 Q 5.874886596679689 1.8451499999999994 5.856886596679688 1.8451499999999994 Q 5.838136596679688 1.8451499999999994 5.828386596679689 1.8436499999999996 L 5.828386596679689 1.9508999999999994 Q 5.828386596679689 1.9741499999999994 5.832136596679688 1.9846499999999996 Q 5.835886596679688 1.9951499999999995 5.847136596679689 1.9988999999999995 Q 5.858386596679688 2.0026499999999996 5.883886596679688 2.0026499999999996 Q 5.885386596679688 2.0026499999999996 5.885386596679688 2.0071499999999993 Q 5.885386596679688 2.0116499999999995 5.883886596679688 2.0116499999999995 Q 5.862886596679688 2.0116499999999995 5.851636596679688 2.0108999999999995 L 5.804386596679689 2.0101499999999994 L 5.760136596679688 2.0108999999999995 Q 5.747386596679688 2.0116499999999995 5.7256365966796885 2.0116499999999995 Q 5.724136596679688 2.0116499999999995 5.724136596679688 2.0071499999999993 Q 5.724136596679688 2.0026499999999996 5.7256365966796885 2.0026499999999996 Q 5.7503865966796885 2.0026499999999996 5.762011596679688 1.9988999999999995 Q 5.7736365966796885 1.9951499999999995 5.778136596679689 1.9842749999999996 Q 5.782636596679688 1.9733999999999996 5.782636596679688 1.9508999999999994 L 5.782636596679688 1.7213999999999996 Q 5.782636596679688 1.6988999999999994 5.778511596679689 1.6883999999999995 Q 5.774386596679689 1.6778999999999995 5.762761596679688 1.6737749999999996 Q 5.751136596679689 1.6696499999999994 5.7263865966796885 1.6696499999999994 Q 5.7248865966796885 1.6696499999999994 5.7248865966796885 1.6651499999999995 Q 5.7248865966796885 1.6606499999999995 5.7263865966796885 1.6606499999999995 L 5.760886596679688 1.6613999999999995 Q 5.787886596679688 1.6628999999999996 5.804386596679689 1.6628999999999996 Q 5.817886596679688 1.6628999999999996 5.829511596679688 1.6621499999999996 Q 5.841136596679688 1.6613999999999995 5.849386596679689 1.6606499999999995 Q 5.872636596679689 1.6583999999999994 5.893636596679689 1.6583999999999994 Q 5.942386596679689 1.6583999999999994 5.967886596679689 1.6771499999999995 Q 5.993386596679688 1.6958999999999995 5.993386596679688 1.7311499999999995 Q 5.993386596679688 1.7611499999999995 5.976136596679688 1.7866499999999994 Q 5.9588865966796885 1.8121499999999995 5.929636596679688 1.8278999999999994 Q 5.971636596679688 1.8968999999999996 6.000511596679688 1.9340249999999994 Q 6.0293865966796885 1.9711499999999995 6.0537615966796885 1.9868999999999994 Q 6.0781365966796885 2.0026499999999996 6.106636596679689 2.0026499999999996 Q 6.108136596679689 2.0026499999999996 6.108136596679689 2.0071499999999993 M 5.862136596679688 1.8323999999999996 Q 5.908636596679688 1.8323999999999996 5.927011596679688 1.8117749999999995 Q 5.945386596679688 1.7911499999999996 5.945386596679688 1.7513999999999994 Q 5.945386596679688 1.6688999999999994 5.874136596679689 1.6688999999999994 Q 5.845636596679689 1.6688999999999994 5.837011596679688 1.6808999999999994 Q 5.828386596679689 1.6928999999999994 5.828386596679689 1.7228999999999994 L 5.828386596679689 1.8301499999999995 Q 5.8418865966796885 1.8323999999999996 5.862136596679688 1.8323999999999996" fill="#503ee1" fill-rule="nonzero"></path></g></g><defs><clipPath id="SvgjsClipPath115765"><path d=" M 6.499151611328125 -1.1040113194214851 h 7.354559542562514 v 4.21967263884297 h -7.354559542562514 Z"></path></clipPath><clipPath id="SvgjsClipPath115760bc2a0151-cc77-4121-8979-387d861b34dc"><path d=" M 6.499151611328125 -1.1040113194214851 L 13.85371115389064 -1.1040113194214851 L 13.85371115389064 3.1156613194214846 L 6.499151611328125 3.1156613194214846 Z"></path></clipPath></defs></svg>